<?xml version="1.0" encoding="utf-8" standalone="no"?>
<!DOCTYPE svg PUBLIC "-//W3C//DTD SVG 1.1//EN"
  "http://www.w3.org/Graphics/SVG/1.1/DTD/svg11.dtd">
<svg height="90pt" version="1.1" viewBox="0 0 216 90" width="216pt" xmlns="http://www.w3.org/2000/svg" xmlns:xlink="http://www.w3.org/1999/xlink">
 <metadata>
  <rdf:RDF xmlns:cc="http://creativecommons.org/ns#" xmlns:dc="http://purl.org/dc/elements/1.1/" xmlns:rdf="http://www.w3.org/1999/02/22-rdf-syntax-ns#">
   <cc:Work>
    <dc:type rdf:resource="http://purl.org/dc/dcmitype/StillImage"/>
    <dc:date>2023-03-14T15:38:48.683523</dc:date>
    <dc:format>image/svg+xml</dc:format>
    <dc:creator>
     <cc:Agent>
      <dc:title>Matplotlib v3.4.3, https://matplotlib.org/</dc:title>
     </cc:Agent>
    </dc:creator>
   </cc:Work>
  </rdf:RDF>
 </metadata>
 <defs>
  <style type="text/css">*{stroke-linecap:butt;stroke-linejoin:round;}</style>
 </defs>
 <g id="figure_1">
  <g id="patch_1">
   <path d="M 0 90 
L 216 90 
L 216 0 
L 0 0 
z
" style="fill:#ffffff;"/>
  </g>
  <g id="axes_1">
   <g id="patch_2">
    <path d="M 32.4 67.5 
L 205.2 67.5 
L 205.2 10.8 
L 32.4 10.8 
z
" style="fill:#ffffff;"/>
   </g>
   <g id="line2d_1">
    <path clip-path="url(#p74fda1e241)" d="M 32.4 67.5 
L 205.2 67.5 
" style="fill:none;stroke:#000000;stroke-linecap:round;stroke-width:0.5;"/>
   </g>
   <g id="patch_3">
    <path clip-path="url(#p74fda1e241)" d="M 32.4 67.427308 
L 32.4 66.118846 
L 38.249788 66.118846 
L 50.436846 66.992582 
L 50.436846 66.118846 
L 56.020144 66.118846 
L 56.020144 67.427308 
L 49.988363 67.427308 
L 37.983298 66.573851 
L 37.983298 67.427308 
L 32.4 67.427308 
z
" style="fill:#29c417;"/>
   </g>
   <g id="patch_4">
    <path clip-path="url(#p74fda1e241)" d="M 56.020144 65.973462 
L 50.85115 65.973462 
L 48.795884 65.676123 
L 39.382766 65.676123 
L 37.44054 65.973462 
L 32.4 65.973462 
L 41.566486 64.665 
L 46.59675 64.665 
L 56.020144 65.973462 
z
M 47.269849 65.455618 
L 44.027667 64.970051 
L 40.847143 65.455618 
L 47.269849 65.455618 
z
" style="fill:#809df0;"/>
   </g>
   <g id="patch_5">
    <path clip-path="url(#p74fda1e241)" d="M 41.074505 64.519615 
L 41.074505 63.211154 
L 47.345639 63.211154 
L 47.345639 64.519615 
L 41.074505 64.519615 
z
" style="fill:#809df0;"/>
   </g>
   <g id="patch_6">
    <path clip-path="url(#p74fda1e241)" d="M 32.4 62.920385 
L 32.4 58.995 
L 55.430318 58.995 
L 55.430318 59.659085 
L 38.671135 59.659085 
L 38.671135 60.528822 
L 54.264226 60.528822 
L 54.264226 61.190336 
L 38.671135 61.190336 
L 38.671135 62.25887 
L 56.020144 62.25887 
L 56.020144 62.920385 
L 32.4 62.920385 
z
" style="fill:#be38bf;"/>
   </g>
   <g id="patch_7">
    <path clip-path="url(#p74fda1e241)" d="M 33.277959 58.558846 
L 33.277959 54.633462 
L 39.549093 54.633462 
L 39.549093 57.891945 
L 55.142185 57.891945 
L 55.142185 58.558846 
L 33.277959 58.558846 
z
" style="fill:#809df0;"/>
   </g>
   <g id="patch_8">
    <path clip-path="url(#p74fda1e241)" d="M 41.21862 54.124615 
L 41.21862 49.776216 
L 32.4 49.776216 
L 32.4 48.890769 
L 56.020144 48.890769 
L 56.020144 49.776216 
L 47.220991 49.776216 
L 47.220991 54.124615 
L 41.21862 54.124615 
z
" style="fill:#29c417;"/>
   </g>
   <g id="patch_9">
    <path clip-path="url(#p74fda1e241)" d="M 32.4 41.694231 
L 42.795324 41.694231 
Q 46.313741 41.694231 48.159065 41.818479 
Q 50.63795 41.988428 52.403309 42.421154 
Q 54.17482 42.85388 55.097482 43.480833 
Q 56.020144 44.107787 56.020144 45.027509 
Q 56.020144 45.835836 55.158993 46.419945 
Q 54.101007 47.134015 52.138813 47.57531 
Q 50.656403 47.910923 48.140612 48.098009 
Q 46.258381 48.236538 43.102878 48.236538 
L 32.4 48.236538 
L 32.4 41.694231 
z
M 38.089748 42.801039 
L 38.089748 47.134015 
L 42.333993 47.134015 
Q 44.720612 47.134015 45.778597 47.071177 
Q 47.16259 46.991201 48.07295 46.79983 
Q 48.983309 46.607031 49.561511 46.168592 
Q 50.139712 45.728725 50.139712 44.968955 
Q 50.139712 44.210613 49.561511 43.805021 
Q 48.983309 43.398001 47.943777 43.170927 
Q 46.910396 42.943853 45.317266 42.862449 
Q 44.123957 42.801039 40.642446 42.801039 
L 38.089748 42.801039 
z
" style="fill:#be38bf;"/>
   </g>
   <g id="patch_10">
    <path clip-path="url(#p74fda1e241)" d="M 32.4 37.784305 
L 38.10688 37.616192 
Q 38.626841 38.491537 40.199403 38.903122 
Q 41.771966 39.312776 44.447859 39.312776 
Q 47.282276 39.312776 48.715337 38.947566 
Q 50.154739 38.582356 50.154739 38.093477 
Q 50.154739 37.778508 49.552346 37.558222 
Q 48.949953 37.337937 47.4408 37.175622 
Q 46.413562 37.065479 42.748476 36.789156 
Q 38.030789 36.431676 36.128495 35.913812 
Q 33.452602 35.18146 33.452602 34.132206 
Q 33.452602 33.455892 34.708116 32.866532 
Q 35.969971 32.277172 38.335156 31.969932 
Q 40.706681 31.662692 44.054718 31.662692 
Q 49.520641 31.662692 52.285308 32.393112 
Q 55.049974 33.123532 55.189476 34.34283 
L 49.324071 34.422056 
Q 48.949953 33.739944 47.707121 33.440433 
Q 46.470631 33.140923 43.991308 33.140923 
Q 41.435894 33.140923 39.990151 33.461689 
Q 39.058027 33.666516 39.058027 34.01047 
Q 39.058027 34.325439 39.933082 34.547657 
Q 41.042753 34.831709 45.322914 35.140881 
Q 49.603074 35.448121 51.65121 35.778549 
Q 53.705687 36.107045 54.859745 36.677081 
Q 56.020144 37.247118 56.020144 38.08768 
Q 56.020144 38.847085 54.63147 39.511805 
Q 53.249136 40.176526 50.712745 40.499224 
Q 48.176354 40.821923 44.39079 40.821923 
Q 38.88048 40.821923 35.925584 40.04706 
Q 32.977029 39.270264 32.4 37.784305 
z
" style="fill:#29c417;"/>
   </g>
   <g id="patch_11">
    <path clip-path="url(#p74fda1e241)" d="M 45.028646 23.32232 
L 45.028646 20.336918 
L 56.020144 20.336918 
L 56.020144 27.394379 
Q 54.416069 28.481034 51.373287 29.308594 
Q 48.336018 30.136154 45.216064 30.136154 
Q 41.258243 30.136154 38.30917 28.972156 
Q 35.36561 27.804291 33.882805 25.634847 
Q 32.4 23.465403 32.4 20.916983 
Q 32.4 18.148138 34.053686 15.998029 
Q 35.707371 13.847921 38.893472 12.699392 
Q 41.32439 11.817692 44.94045 11.817692 
Q 49.642429 11.817692 52.288327 13.202115 
Q 54.934224 14.58267 55.689407 17.022811 
L 50.629129 17.687953 
Q 50.094437 16.38474 48.617144 15.630655 
Q 47.145364 14.872703 44.94045 14.872703 
Q 41.600005 14.872703 39.626606 16.361537 
Q 37.653208 17.846504 37.653208 20.770033 
Q 37.653208 23.925588 39.648656 25.503366 
Q 41.649615 27.077276 44.890839 27.077276 
Q 46.494914 27.077276 48.104502 26.636427 
Q 49.714089 26.195577 50.866157 25.569107 
L 50.866157 23.32232 
L 45.028646 23.32232 
z
" style="fill:#ef8f48;"/>
   </g>
   <g id="patch_12">
    <path clip-path="url(#p74fda1e241)" d="M 66.32711 67.427308 
L 57.263309 66.118846 
L 62.816756 66.118846 
L 69.23395 67.087125 
L 75.44628 66.118846 
L 80.883453 66.118846 
L 71.797505 67.427308 
L 66.32711 67.427308 
z
" style="fill:#809df0;"/>
   </g>
   <g id="patch_13">
    <path clip-path="url(#p74fda1e241)" d="M 57.263309 63.283846 
L 57.263309 13.562308 
L 63.113097 13.562308 
L 75.300156 46.764269 
L 75.300156 13.562308 
L 80.883453 13.562308 
L 80.883453 63.283846 
L 74.851672 63.283846 
L 62.846607 30.852509 
L 62.846607 63.283846 
L 57.263309 63.283846 
z
" style="fill:#29c417;"/>
   </g>
   <g id="patch_14">
    <path clip-path="url(#p74fda1e241)" d="M 101.955054 67.161423 
Q 103.699956 67.223548 105.746763 67.260363 
L 104.00186 67.427308 
Q 102.932404 67.411457 101.909001 67.38359 
Q 101.683852 67.377966 98.756919 67.279537 
Q 96.454262 67.329902 93.655255 67.329902 
Q 88.251686 67.329902 85.186594 67.170882 
Q 82.126619 67.011862 82.126619 66.724246 
Q 82.126619 66.437397 85.196828 66.278122 
Q 88.267037 66.118846 93.527329 66.118846 
Q 98.741568 66.118846 101.796427 66.278122 
Q 104.851285 66.437397 104.851285 66.724246 
Q 104.851285 66.876107 104.00186 66.991154 
Q 103.362233 67.0791 101.955054 67.161423 
z
M 98.147994 67.027969 
Q 99.06394 66.97428 99.519355 66.898605 
Q 99.974769 66.822675 99.974769 66.724246 
Q 99.974769 66.521509 98.183814 66.42129 
Q 96.392858 66.320817 93.496627 66.320817 
Q 90.600396 66.320817 88.799207 66.421546 
Q 87.003135 66.522276 87.003135 66.724246 
Q 87.003135 66.92954 88.799207 67.031548 
Q 90.600396 67.1333 93.353351 67.1333 
Q 94.376754 67.1333 95.287583 67.116682 
Q 93.849701 67.069385 92.36065 67.043053 
L 93.691074 66.908065 
Q 96.024433 66.947948 98.147994 67.027969 
z
" style="fill:#29c417;"/>
   </g>
   <g id="patch_15">
    <path clip-path="url(#p74fda1e241)" d="M 83.004578 65.973462 
L 83.004578 64.665 
L 89.275712 64.665 
L 89.275712 65.751161 
L 104.868804 65.751161 
L 104.868804 65.973462 
L 83.004578 65.973462 
z
" style="fill:#809df0;"/>
   </g>
   <g id="patch_16">
    <path clip-path="url(#p74fda1e241)" d="M 82.126619 64.519615 
L 82.126619 63.211154 
L 105.156937 63.211154 
L 105.156937 63.432515 
L 88.397753 63.432515 
L 88.397753 63.722428 
L 103.990845 63.722428 
L 103.990845 63.942933 
L 88.397753 63.942933 
L 88.397753 64.299111 
L 105.746763 64.299111 
L 105.746763 64.519615 
L 82.126619 64.519615 
z
" style="fill:#be38bf;"/>
   </g>
   <g id="patch_17">
    <path clip-path="url(#p74fda1e241)" d="M 82.126619 61.757308 
L 92.521942 61.757308 
Q 96.04036 61.757308 97.885683 61.782157 
Q 100.364568 61.816147 102.129928 61.902692 
Q 103.901439 61.989238 104.824101 62.114628 
Q 105.746763 62.240019 105.746763 62.423963 
Q 105.746763 62.585629 104.885612 62.702451 
Q 103.827626 62.845264 101.865432 62.933524 
Q 100.383022 63.000646 97.86723 63.038063 
Q 95.985 63.065769 92.829496 63.065769 
L 82.126619 63.065769 
L 82.126619 61.757308 
z
M 87.816367 61.978669 
L 87.816367 62.845264 
L 92.060612 62.845264 
Q 94.44723 62.845264 95.505216 62.832697 
Q 96.889209 62.816702 97.799568 62.778428 
Q 98.709928 62.739868 99.288129 62.65218 
Q 99.866331 62.564207 99.866331 62.412253 
Q 99.866331 62.260584 99.288129 62.179466 
Q 98.709928 62.098062 97.670396 62.052647 
Q 96.637014 62.007232 95.043885 61.990951 
Q 93.850576 61.978669 90.369065 61.978669 
L 87.816367 61.978669 
z
" style="fill:#be38bf;"/>
   </g>
   <g id="patch_18">
    <path clip-path="url(#p74fda1e241)" d="M 82.126619 61.539231 
L 82.126619 58.922308 
L 87.976407 58.922308 
L 100.163465 60.669779 
L 100.163465 58.922308 
L 105.746763 58.922308 
L 105.746763 61.539231 
L 99.714981 61.539231 
L 87.709916 59.832318 
L 87.709916 61.539231 
L 82.126619 61.539231 
z
" style="fill:#29c417;"/>
   </g>
   <g id="patch_19">
    <path clip-path="url(#p74fda1e241)" d="M 94.755265 57.658134 
L 94.755265 57.231648 
L 105.746763 57.231648 
L 105.746763 58.239856 
Q 104.142687 58.395093 101.099906 58.513316 
Q 98.062636 58.631538 94.942683 58.631538 
Q 90.984862 58.631538 88.035789 58.465253 
Q 85.092228 58.298415 83.609424 57.988495 
Q 82.126619 57.678574 82.126619 57.314514 
Q 82.126619 56.918965 83.780304 56.611806 
Q 85.43399 56.304648 88.620091 56.140572 
Q 91.051009 56.014615 94.667068 56.014615 
Q 99.369048 56.014615 102.014945 56.21239 
Q 104.660842 56.409612 105.416025 56.758204 
L 100.355747 56.853224 
Q 99.821056 56.667051 98.343763 56.559324 
Q 96.871983 56.451045 94.667068 56.451045 
Q 91.326623 56.451045 89.353225 56.663736 
Q 87.379827 56.875874 87.379827 57.293521 
Q 87.379827 57.744315 89.375274 57.969712 
Q 91.376234 58.194556 94.617458 58.194556 
Q 96.221533 58.194556 97.83112 58.131577 
Q 99.440708 58.068599 100.592776 57.979103 
L 100.592776 57.658134 
L 94.755265 57.658134 
z
" style="fill:#ef8f48;"/>
   </g>
   <g id="patch_20">
    <path clip-path="url(#p74fda1e241)" d="M 82.126619 55.578462 
L 82.126619 50.344615 
L 93.291567 50.344615 
Q 97.500643 50.344615 99.41021 50.486287 
Q 101.319778 50.626816 102.466665 50.987849 
Q 103.613552 51.347741 103.613552 51.8116 
Q 103.613552 52.401136 101.870284 52.78502 
Q 100.132749 53.168904 96.674884 53.268303 
Q 98.395215 53.468242 99.51343 53.70817 
Q 100.63738 53.946955 102.535478 54.557056 
L 105.746763 55.578462 
L 99.398741 55.578462 
L 95.568138 54.439377 
Q 93.520944 53.829276 92.769733 53.670467 
Q 92.018522 53.511658 91.175559 53.452247 
Q 90.332597 53.392837 88.503312 53.392837 
L 87.430972 53.392837 
L 87.430972 55.578462 
L 82.126619 55.578462 
z
M 87.430972 52.557661 
L 91.353327 52.557661 
Q 95.172462 52.557661 96.118644 52.49368 
Q 97.07056 52.429699 97.609597 52.273175 
Q 98.148634 52.115509 98.148634 51.879009 
Q 98.148634 51.615088 97.437564 51.452852 
Q 96.732228 51.290615 95.44198 51.2472 
Q 94.793989 51.230062 91.571236 51.230062 
L 87.430972 51.230062 
L 87.430972 52.557661 
z
" style="fill:#ed000a;"/>
   </g>
   <g id="patch_21">
    <path clip-path="url(#p74fda1e241)" d="M 90.945238 49.617692 
L 90.945238 43.095093 
L 82.126619 43.095093 
L 82.126619 41.766923 
L 105.746763 41.766923 
L 105.746763 43.095093 
L 96.94761 43.095093 
L 96.94761 49.617692 
L 90.945238 49.617692 
z
" style="fill:#29c417;"/>
   </g>
   <g id="patch_22">
    <path clip-path="url(#p74fda1e241)" d="M 105.746763 40.676538 
L 100.577769 40.676538 
L 98.522503 38.00049 
L 89.109385 38.00049 
L 87.167158 40.676538 
L 82.126619 40.676538 
L 91.293105 28.900385 
L 96.323368 28.900385 
L 105.746763 40.676538 
z
M 96.996468 36.015948 
L 93.754286 31.64584 
L 90.573762 36.015948 
L 96.996468 36.015948 
z
" style="fill:#809df0;"/>
   </g>
   <g id="patch_23">
    <path clip-path="url(#p74fda1e241)" d="M 82.126619 22.1665 
L 87.833499 21.878308 
Q 88.353459 23.378898 89.926022 24.084473 
Q 91.498585 24.786736 94.174477 24.786736 
Q 97.008895 24.786736 98.441956 24.160662 
Q 99.881358 23.534588 99.881358 22.69651 
Q 99.881358 22.156563 99.278965 21.778931 
Q 98.676572 21.401299 97.167419 21.123044 
Q 96.140181 20.934228 92.475095 20.460532 
Q 87.757407 19.847708 85.855114 18.959942 
Q 83.179221 17.704481 83.179221 15.90576 
Q 83.179221 14.746364 84.434735 13.736033 
Q 85.696589 12.725702 88.061774 12.199005 
Q 90.4333 11.672308 93.781337 11.672308 
Q 99.24726 11.672308 102.011926 12.924456 
Q 104.776593 14.176604 104.916094 16.26683 
L 99.05069 16.402645 
Q 98.676572 15.233311 97.43374 14.719864 
Q 96.197249 14.206417 93.717927 14.206417 
Q 91.162513 14.206417 89.71677 14.756302 
Q 88.784646 15.107433 88.784646 15.697069 
Q 88.784646 16.237017 89.659701 16.617961 
Q 90.769372 17.104907 95.049532 17.634917 
Q 99.329693 18.161614 101.377829 18.728062 
Q 103.432306 19.291198 104.586364 20.268403 
Q 105.746763 21.245609 105.746763 22.686573 
Q 105.746763 23.988409 104.358088 25.12793 
Q 102.975755 26.267451 100.439364 26.820648 
Q 97.902973 27.373846 94.117409 27.373846 
Q 88.607098 27.373846 85.652203 26.045509 
Q 82.703648 24.71386 82.126619 22.1665 
z
" style="fill:#29c417;"/>
   </g>
   <g id="patch_24">
    <path clip-path="url(#p74fda1e241)" d="M 106.989928 66.993362 
L 112.696808 66.969346 
Q 113.216769 67.094395 114.789331 67.153193 
Q 116.361894 67.211715 119.037787 67.211715 
Q 121.872204 67.211715 123.305265 67.159542 
Q 124.744667 67.10737 124.744667 67.03753 
Q 124.744667 66.992534 124.142274 66.961065 
Q 123.539881 66.929595 122.030728 66.906407 
Q 121.00349 66.890673 117.338405 66.851198 
Q 112.620717 66.80013 110.718423 66.726149 
Q 108.04253 66.621527 108.04253 66.471634 
Q 108.04253 66.375018 109.298044 66.290823 
Q 110.559899 66.206629 112.925084 66.162738 
Q 115.29661 66.118846 118.644646 66.118846 
Q 124.110569 66.118846 126.875236 66.223192 
Q 129.639902 66.327537 129.779404 66.501723 
L 123.913999 66.513041 
Q 123.539881 66.415596 122.297049 66.372809 
Q 121.060559 66.330022 118.581236 66.330022 
Q 116.025822 66.330022 114.580079 66.375846 
Q 113.647955 66.405107 113.647955 66.454243 
Q 113.647955 66.499239 114.52301 66.530984 
Q 115.632681 66.571563 119.912842 66.61573 
Q 124.193002 66.659622 126.241138 66.706826 
Q 128.295615 66.753754 129.449673 66.835187 
Q 130.610072 66.916621 130.610072 67.036702 
Q 130.610072 67.145188 129.221398 67.240148 
Q 127.839064 67.335108 125.302673 67.381208 
Q 122.766282 67.427308 118.980718 67.427308 
Q 113.470408 67.427308 110.515512 67.316613 
Q 107.566957 67.205642 106.989928 66.993362 
z
" style="fill:#29c417;"/>
   </g>
   <g id="patch_25">
    <path clip-path="url(#p74fda1e241)" d="M 130.610072 65.973462 
L 125.441078 65.973462 
L 123.385812 65.676123 
L 113.972694 65.676123 
L 112.030468 65.973462 
L 106.989928 65.973462 
L 116.156414 64.665 
L 121.186678 64.665 
L 130.610072 65.973462 
z
M 121.859777 65.455618 
L 118.617595 64.970051 
L 115.437071 65.455618 
L 121.859777 65.455618 
z
" style="fill:#809df0;"/>
   </g>
   <g id="patch_26">
    <path clip-path="url(#p74fda1e241)" d="M 115.664433 64.374231 
L 115.664433 60.448846 
L 121.935567 60.448846 
L 121.935567 64.374231 
L 115.664433 64.374231 
z
" style="fill:#809df0;"/>
   </g>
   <g id="patch_27">
    <path clip-path="url(#p74fda1e241)" d="M 116.053729 59.503846 
L 106.989928 46.419231 
L 112.543375 46.419231 
L 118.960568 56.102018 
L 125.172899 46.419231 
L 130.610072 46.419231 
L 121.524123 59.503846 
L 116.053729 59.503846 
z
" style="fill:#809df0;"/>
   </g>
   <g id="patch_28">
    <path clip-path="url(#p74fda1e241)" d="M 115.808548 43.947692 
L 115.808548 17.857295 
L 106.989928 17.857295 
L 106.989928 12.544615 
L 130.610072 12.544615 
L 130.610072 17.857295 
L 121.810919 17.857295 
L 121.810919 43.947692 
L 115.808548 43.947692 
z
" style="fill:#29c417;"/>
   </g>
   <g id="patch_29">
    <path clip-path="url(#p74fda1e241)" d="M 131.853237 67.427308 
L 131.853237 66.118846 
L 137.703025 66.118846 
L 149.890084 66.992582 
L 149.890084 66.118846 
L 155.473381 66.118846 
L 155.473381 67.427308 
L 149.4416 67.427308 
L 137.436535 66.573851 
L 137.436535 67.427308 
L 131.853237 67.427308 
z
" style="fill:#29c417;"/>
   </g>
   <g id="patch_30">
    <path clip-path="url(#p74fda1e241)" d="M 140.527742 65.973462 
L 140.527742 64.665 
L 146.798877 64.665 
L 146.798877 65.973462 
L 140.527742 65.973462 
z
" style="fill:#809df0;"/>
   </g>
   <g id="patch_31">
    <path clip-path="url(#p74fda1e241)" d="M 131.853237 63.574615 
L 131.853237 45.256154 
L 137.142183 45.256154 
L 137.142183 53.389695 
L 147.828711 45.256154 
L 154.941628 45.256154 
L 145.07846 52.389997 
L 155.473381 63.574615 
L 148.634918 63.574615 
L 141.430517 54.977215 
L 137.142183 58.040289 
L 137.142183 63.574615 
L 131.853237 63.574615 
z
" style="fill:#ed000a;"/>
   </g>
   <g id="patch_32">
    <path clip-path="url(#p74fda1e241)" d="M 131.853237 42.566538 
L 131.853237 12.471923 
L 143.018185 12.471923 
Q 147.227262 12.471923 149.136829 13.286534 
Q 151.046396 14.094575 152.193284 16.170519 
Q 153.340171 18.239893 153.340171 20.907087 
Q 153.340171 24.296919 151.596902 26.504252 
Q 149.859368 28.711585 146.401503 29.283126 
Q 148.121834 30.432778 149.240049 31.812361 
Q 150.363998 33.185375 152.262097 36.693457 
L 155.473381 42.566538 
L 149.12536 42.566538 
L 145.294757 36.016804 
Q 143.247563 32.508722 142.496352 31.59557 
Q 141.74514 30.682417 140.902178 30.340806 
Q 140.059216 29.999195 138.229931 29.999195 
L 137.157591 29.999195 
L 137.157591 42.566538 
L 131.853237 42.566538 
z
M 137.157591 25.196933 
L 141.079946 25.196933 
Q 144.89908 25.196933 145.845262 24.829044 
Q 146.797179 24.461155 147.336216 23.561142 
Q 147.875253 22.654559 147.875253 21.294684 
Q 147.875253 19.777143 147.164183 18.844282 
Q 146.458847 17.911421 145.168599 17.661783 
Q 144.520608 17.563241 141.297854 17.563241 
L 137.157591 17.563241 
L 137.157591 25.196933 
z
" style="fill:#ed000a;"/>
   </g>
   <g id="patch_33">
    <path clip-path="url(#p74fda1e241)" d="M 165.391051 67.427308 
L 165.391051 66.118846 
L 171.662186 66.118846 
L 171.662186 67.427308 
L 165.391051 67.427308 
z
" style="fill:#809df0;"/>
   </g>
   <g id="patch_34">
    <path clip-path="url(#p74fda1e241)" d="M 165.780348 65.973462 
L 156.716547 64.665 
L 162.269994 64.665 
L 168.687187 65.633279 
L 174.899517 64.665 
L 180.336691 64.665 
L 171.250742 65.973462 
L 165.780348 65.973462 
z
" style="fill:#809df0;"/>
   </g>
   <g id="patch_35">
    <path clip-path="url(#p74fda1e241)" d="M 176.544982 64.25373 
Q 178.289884 64.315855 180.336691 64.35267 
L 178.591788 64.519615 
Q 177.522332 64.503765 176.498929 64.475898 
Q 176.27378 64.470273 173.346847 64.371845 
Q 171.04419 64.422209 168.245183 64.422209 
Q 162.841614 64.422209 159.776522 64.26319 
Q 156.716547 64.10417 156.716547 63.816554 
Q 156.716547 63.529705 159.786756 63.370429 
Q 162.856965 63.211154 168.117257 63.211154 
Q 173.331496 63.211154 176.386355 63.370429 
Q 179.441213 63.529705 179.441213 63.816554 
Q 179.441213 63.968415 178.591788 64.083462 
Q 177.952161 64.171408 176.544982 64.25373 
z
M 172.737923 64.120276 
Q 173.653868 64.066588 174.109283 63.990913 
Q 174.564697 63.914982 174.564697 63.816554 
Q 174.564697 63.613816 172.773742 63.513598 
Q 170.982786 63.413124 168.086555 63.413124 
Q 165.190325 63.413124 163.389135 63.513854 
Q 161.593063 63.614583 161.593063 63.816554 
Q 161.593063 64.021848 163.389135 64.123856 
Q 165.190325 64.225608 167.943279 64.225608 
Q 168.966682 64.225608 169.877511 64.20899 
Q 168.439629 64.161693 166.950578 64.13536 
L 168.281002 64.000372 
Q 170.614361 64.040255 172.737923 64.120276 
z
" style="fill:#29c417;"/>
   </g>
   <g id="patch_36">
    <path clip-path="url(#p74fda1e241)" d="M 165.535166 63.065769 
L 165.535166 61.978669 
L 156.716547 61.978669 
L 156.716547 61.757308 
L 180.336691 61.757308 
L 180.336691 61.978669 
L 171.537538 61.978669 
L 171.537538 63.065769 
L 165.535166 63.065769 
z
" style="fill:#29c417;"/>
   </g>
   <g id="patch_37">
    <path clip-path="url(#p74fda1e241)" d="M 156.716547 61.539231 
L 156.716547 58.922308 
L 162.566335 58.922308 
L 174.753393 60.669779 
L 174.753393 58.922308 
L 180.336691 58.922308 
L 180.336691 61.539231 
L 174.304909 61.539231 
L 162.299844 59.832318 
L 162.299844 61.539231 
L 156.716547 61.539231 
z
" style="fill:#29c417;"/>
   </g>
   <g id="patch_38">
    <path clip-path="url(#p74fda1e241)" d="M 169.345193 57.098739 
L 169.345193 56.45901 
L 180.336691 56.45901 
L 180.336691 57.971323 
Q 178.732616 58.204178 175.689834 58.381512 
Q 172.652564 58.558846 169.532611 58.558846 
Q 165.57479 58.558846 162.625717 58.309418 
Q 159.682156 58.059161 158.199352 57.59428 
Q 156.716547 57.1294 156.716547 56.58331 
Q 156.716547 55.989986 158.370232 55.529248 
Q 160.023918 55.06851 163.210019 54.822397 
Q 165.640937 54.633462 169.256997 54.633462 
Q 173.958976 54.633462 176.604873 54.930123 
Q 179.25077 55.225957 180.005954 55.748844 
L 174.945675 55.891375 
Q 174.410984 55.612115 172.933691 55.450525 
Q 171.461911 55.288107 169.256997 55.288107 
Q 165.916551 55.288107 163.943153 55.607143 
Q 161.969755 55.92535 161.969755 56.55182 
Q 161.969755 57.228011 163.965202 57.566106 
Q 165.966162 57.903372 169.207386 57.903372 
Q 170.811461 57.903372 172.421048 57.808905 
Q 174.030636 57.714437 175.182704 57.580193 
L 175.182704 57.098739 
L 169.345193 57.098739 
z
" style="fill:#ef8f48;"/>
   </g>
   <g id="patch_39">
    <path clip-path="url(#p74fda1e241)" d="M 156.716547 54.124615 
L 156.716547 48.890769 
L 166.705801 48.890769 
Q 172.387021 48.890769 174.110235 48.96846 
Q 176.762369 49.087281 178.546164 49.481448 
Q 180.336691 49.875614 180.336691 50.500568 
Q 180.336691 50.982708 179.306801 51.311752 
Q 178.276912 51.639652 176.688324 51.827024 
Q 175.099737 52.014396 173.457298 52.074949 
Q 171.229237 52.150355 167.001978 52.150355 
L 162.943002 52.150355 
L 162.943002 54.124615 
L 156.716547 54.124615 
z
M 162.943002 49.776216 
L 162.943002 51.261481 
L 166.349042 51.261481 
Q 170.031065 51.261481 171.269625 51.17922 
Q 172.514916 51.096959 173.214972 50.922155 
Q 173.921758 50.747351 173.921758 50.515421 
Q 173.921758 50.229793 172.932257 50.044706 
Q 171.942755 49.858477 170.428212 49.811634 
Q 169.317547 49.776216 165.951895 49.776216 
L 162.943002 49.776216 
z
" style="fill:#c1c204;"/>
   </g>
   <g id="patch_40">
    <path clip-path="url(#p74fda1e241)" d="M 156.716547 38.931923 
L 167.111871 38.931923 
Q 170.630288 38.931923 172.475612 39.10587 
Q 174.954496 39.343799 176.719856 39.949615 
Q 178.491367 40.555432 179.414029 41.433167 
Q 180.336691 42.310901 180.336691 43.598512 
Q 180.336691 44.73017 179.47554 45.547923 
Q 178.417554 46.547621 176.45536 47.165434 
Q 174.97295 47.635292 172.457158 47.897212 
Q 170.574928 48.091154 167.419424 48.091154 
L 156.716547 48.091154 
L 156.716547 38.931923 
z
M 162.406295 40.481455 
L 162.406295 46.547621 
L 166.65054 46.547621 
Q 169.037158 46.547621 170.095144 46.459647 
Q 171.479137 46.347681 172.389496 46.079762 
Q 173.299856 45.809844 173.878058 45.196029 
Q 174.456259 44.580215 174.456259 43.516537 
Q 174.456259 42.454858 173.878058 41.88703 
Q 173.299856 41.317202 172.260324 40.999298 
Q 171.226942 40.681394 169.633813 40.567429 
Q 168.440504 40.481455 164.958993 40.481455 
L 162.406295 40.481455 
z
" style="fill:#be38bf;"/>
   </g>
   <g id="patch_41">
    <path clip-path="url(#p74fda1e241)" d="M 180.336691 37.841538 
L 175.167697 37.841538 
L 173.112431 35.462829 
L 163.699313 35.462829 
L 161.757086 37.841538 
L 156.716547 37.841538 
L 165.883033 27.373846 
L 170.913296 27.373846 
L 180.336691 37.841538 
z
M 171.586396 33.698791 
L 168.344214 29.814251 
L 165.16369 33.698791 
L 171.586396 33.698791 
z
" style="fill:#809df0;"/>
   </g>
   <g id="patch_42">
    <path clip-path="url(#p74fda1e241)" d="M 156.716547 21.219292 
L 162.423427 20.955115 
Q 162.943387 22.330656 164.51595 22.977434 
Q 166.088513 23.621175 168.764405 23.621175 
Q 171.598823 23.621175 173.031884 23.047274 
Q 174.471286 22.473372 174.471286 21.705134 
Q 174.471286 21.210183 173.868893 20.86402 
Q 173.2665 20.517857 171.757347 20.26279 
Q 170.730109 20.089709 167.065023 19.655487 
Q 162.347335 19.093732 160.445042 18.279946 
Q 157.769149 17.129108 157.769149 15.48028 
Q 157.769149 14.4175 159.024663 13.491364 
Q 160.286518 12.565227 162.651702 12.082421 
Q 165.023228 11.599615 168.371265 11.599615 
Q 173.837188 11.599615 176.601854 12.747418 
Q 179.366521 13.89522 179.506023 15.81126 
L 173.640618 15.935758 
Q 173.2665 14.863868 172.023668 14.393208 
Q 170.787177 13.922549 168.307855 13.922549 
Q 165.752441 13.922549 164.306698 14.42661 
Q 163.374574 14.748481 163.374574 15.28898 
Q 163.374574 15.783932 164.249629 16.133131 
Q 165.3593 16.579499 169.63946 17.065341 
Q 173.919621 17.548147 175.967757 18.06739 
Q 178.022234 18.583598 179.176292 19.47937 
Q 180.336691 20.375141 180.336691 21.696025 
Q 180.336691 22.889375 178.948016 23.933936 
Q 177.565683 24.978497 175.029292 25.485594 
Q 172.492901 25.992692 168.707337 25.992692 
Q 163.197027 25.992692 160.242131 24.77505 
Q 157.293576 23.554371 156.716547 21.219292 
z
" style="fill:#29c417;"/>
   </g>
   <g id="patch_43">
    <path clip-path="url(#p74fda1e241)" d="M 181.579856 66.993362 
L 187.286737 66.969346 
Q 187.806697 67.094395 189.379259 67.153193 
Q 190.951822 67.211715 193.627715 67.211715 
Q 196.462132 67.211715 197.895193 67.159542 
Q 199.334595 67.10737 199.334595 67.03753 
Q 199.334595 66.992534 198.732202 66.961065 
Q 198.129809 66.929595 196.620656 66.906407 
Q 195.593418 66.890673 191.928333 66.851198 
Q 187.210645 66.80013 185.308351 66.726149 
Q 182.632459 66.621527 182.632459 66.471634 
Q 182.632459 66.375018 183.887972 66.290823 
Q 185.149827 66.206629 187.515012 66.162738 
Q 189.886538 66.118846 193.234574 66.118846 
Q 198.700497 66.118846 201.465164 66.223192 
Q 204.22983 66.327537 204.369332 66.501723 
L 198.503927 66.513041 
Q 198.129809 66.415596 196.886978 66.372809 
Q 195.650487 66.330022 193.171164 66.330022 
Q 190.61575 66.330022 189.170007 66.375846 
Q 188.237883 66.405107 188.237883 66.454243 
Q 188.237883 66.499239 189.112938 66.530984 
Q 190.222609 66.571563 194.50277 66.61573 
Q 198.78293 66.659622 200.831066 66.706826 
Q 202.885543 66.753754 204.039601 66.835187 
Q 205.2 66.916621 205.2 67.036702 
Q 205.2 67.145188 203.811326 67.240148 
Q 202.428993 67.335108 199.892601 67.381208 
Q 197.35621 67.427308 193.570646 67.427308 
Q 188.060336 67.427308 185.10544 67.316613 
Q 182.156885 67.205642 181.579856 66.993362 
z
" style="fill:#29c417;"/>
   </g>
   <g id="patch_44">
    <path clip-path="url(#p74fda1e241)" d="M 201.408291 65.707576 
Q 203.153194 65.769702 205.2 65.806516 
L 203.455098 65.973462 
Q 202.385641 65.957611 201.362238 65.929744 
Q 201.13709 65.924119 198.210157 65.825691 
Q 195.9075 65.876056 193.108492 65.876056 
Q 187.704924 65.876056 184.639831 65.717036 
Q 181.579856 65.558016 181.579856 65.2704 
Q 181.579856 64.983551 184.650065 64.824275 
Q 187.720275 64.665 192.980567 64.665 
Q 198.194806 64.665 201.249664 64.824275 
Q 204.304522 64.983551 204.304522 65.2704 
Q 204.304522 65.422261 203.455098 65.537308 
Q 202.815471 65.625254 201.408291 65.707576 
z
M 197.601232 65.574123 
Q 198.517178 65.520434 198.972592 65.444759 
Q 199.428006 65.368829 199.428006 65.2704 
Q 199.428006 65.067663 197.637051 64.967444 
Q 195.846096 64.86697 192.949865 64.86697 
Q 190.053634 64.86697 188.252444 64.9677 
Q 186.456372 65.06843 186.456372 65.2704 
Q 186.456372 65.475694 188.252444 65.577702 
Q 190.053634 65.679454 192.806588 65.679454 
Q 193.829991 65.679454 194.74082 65.662836 
Q 193.302939 65.615539 191.813887 65.589206 
L 193.144311 65.454219 
Q 195.47767 65.494101 197.601232 65.574123 
z
" style="fill:#29c417;"/>
   </g>
   <g id="patch_45">
    <path clip-path="url(#p74fda1e241)" d="M 181.579856 64.519615 
L 181.579856 63.211154 
L 187.546168 63.211154 
L 187.546168 63.726141 
L 199.233688 63.726141 
L 199.233688 63.211154 
L 205.2 63.211154 
L 205.2 64.519615 
L 199.233688 64.519615 
L 199.233688 63.947503 
L 187.546168 63.947503 
L 187.546168 64.519615 
L 181.579856 64.519615 
z
" style="fill:#23a6a4;"/>
   </g>
   <g id="patch_46">
    <path clip-path="url(#p74fda1e241)" d="M 181.579856 63.065769 
L 181.579856 61.757308 
L 187.429644 61.757308 
L 199.616702 62.631044 
L 199.616702 61.757308 
L 205.2 61.757308 
L 205.2 63.065769 
L 199.168219 63.065769 
L 187.163154 62.212313 
L 187.163154 63.065769 
L 181.579856 63.065769 
z
" style="fill:#29c417;"/>
   </g>
   <g id="patch_47">
    <path clip-path="url(#p74fda1e241)" d="M 205.2 61.539231 
L 200.031006 61.539231 
L 197.97574 60.944553 
L 188.562622 60.944553 
L 186.620396 61.539231 
L 181.579856 61.539231 
L 190.746342 58.922308 
L 195.776606 58.922308 
L 205.2 61.539231 
z
M 196.449705 60.503544 
L 193.207523 59.532409 
L 190.026999 60.503544 
L 196.449705 60.503544 
z
" style="fill:#809df0;"/>
   </g>
   <g id="patch_48">
    <path clip-path="url(#p74fda1e241)" d="M 181.579856 58.631538 
L 181.579856 56.014615 
L 191.56911 56.014615 
Q 197.250331 56.014615 198.973544 56.053461 
Q 201.625678 56.112871 203.409473 56.309955 
Q 205.2 56.507038 205.2 56.819515 
Q 205.2 57.060585 204.170111 57.225107 
Q 203.140221 57.389057 201.551634 57.482743 
Q 199.963046 57.576429 198.320608 57.606705 
Q 196.092546 57.644408 191.865288 57.644408 
L 187.806312 57.644408 
L 187.806312 58.631538 
L 181.579856 58.631538 
z
M 187.806312 56.457339 
L 187.806312 57.199971 
L 191.212351 57.199971 
Q 194.894374 57.199971 196.132934 57.158841 
Q 197.378225 57.11771 198.078281 57.030308 
Q 198.785068 56.942906 198.785068 56.826941 
Q 198.785068 56.684127 197.795566 56.591584 
Q 196.806065 56.498469 195.291521 56.475048 
Q 194.180856 56.457339 190.815204 56.457339 
L 187.806312 56.457339 
z
" style="fill:#c1c204;"/>
   </g>
   <g id="patch_49">
    <path clip-path="url(#p74fda1e241)" d="M 190.83163 55.723846 
L 190.83163 54.622465 
L 181.579856 53.106923 
L 187.556569 53.106923 
L 193.5002 54.142039 
L 199.322532 53.106923 
L 205.2 53.106923 
L 195.915144 54.625892 
L 195.915144 55.723846 
L 190.83163 55.723846 
z
" style="fill:#23a6a4;"/>
   </g>
   <g id="patch_50">
    <path clip-path="url(#p74fda1e241)" d="M 182.742558 52.816154 
L 182.742558 50.199231 
L 204.037298 50.199231 
L 204.037298 50.641954 
L 189.013693 50.641954 
L 189.013693 51.261195 
L 201.976298 51.261195 
L 201.976298 51.703919 
L 189.013693 51.703919 
L 189.013693 52.816154 
L 182.742558 52.816154 
z
" style="fill:#809df0;"/>
   </g>
   <g id="patch_51">
    <path clip-path="url(#p74fda1e241)" d="M 190.254361 49.835769 
L 190.254361 45.910385 
L 196.525495 45.910385 
L 196.525495 49.835769 
L 190.254361 49.835769 
z
" style="fill:#809df0;"/>
   </g>
   <g id="patch_52">
    <path clip-path="url(#p74fda1e241)" d="M 181.579856 45.474231 
L 181.579856 41.548846 
L 192.744804 41.548846 
Q 196.95388 41.548846 198.863448 41.6551 
Q 200.773015 41.760496 201.919902 42.031272 
Q 203.06679 42.30119 203.06679 42.649085 
Q 203.06679 43.091237 201.323521 43.37915 
Q 199.585987 43.667063 196.128121 43.741612 
Q 197.848452 43.891566 198.966668 44.071512 
Q 200.090617 44.250601 201.988716 44.708177 
L 205.2 45.474231 
L 198.851979 45.474231 
L 195.021375 44.619918 
Q 192.974181 44.162342 192.22297 44.043235 
Q 191.471759 43.924128 190.628797 43.87957 
Q 189.785835 43.835012 187.956549 43.835012 
L 186.88421 43.835012 
L 186.88421 45.474231 
L 181.579856 45.474231 
z
M 186.88421 43.20863 
L 190.806564 43.20863 
Q 194.625699 43.20863 195.571881 43.160645 
Q 196.523798 43.112659 197.062835 42.995266 
Q 197.601872 42.877016 197.601872 42.699641 
Q 197.601872 42.501701 196.890802 42.380023 
Q 196.185466 42.258346 194.895218 42.225784 
Q 194.247226 42.212931 191.024473 42.212931 
L 186.88421 42.212931 
L 186.88421 43.20863 
z
" style="fill:#ed000a;"/>
   </g>
   <g id="patch_53">
    <path clip-path="url(#p74fda1e241)" d="M 194.208502 39.09319 
L 194.208502 38.240218 
L 205.2 38.240218 
L 205.2 40.256636 
Q 203.595925 40.567109 200.553143 40.803554 
Q 197.515874 41.04 194.39592 41.04 
Q 190.438099 41.04 187.489026 40.707429 
Q 184.545466 40.373754 183.062661 39.753912 
Q 181.579856 39.134071 181.579856 38.405951 
Q 181.579856 37.614853 183.233542 37.000536 
Q 184.887227 36.386219 188.073329 36.058068 
Q 190.504247 35.806154 194.120306 35.806154 
Q 198.822286 35.806154 201.468183 36.201703 
Q 204.11408 36.596148 204.869263 37.293331 
L 199.808985 37.483371 
Q 199.274293 37.111025 197.797 36.895572 
Q 196.32522 36.679014 194.120306 36.679014 
Q 190.779861 36.679014 188.806463 37.104395 
Q 186.833064 37.528672 186.833064 38.363966 
Q 186.833064 39.265553 188.828512 39.716346 
Q 190.829471 40.166035 194.070695 40.166035 
Q 195.67477 40.166035 197.284358 40.040078 
Q 198.893945 39.914121 200.046013 39.735129 
L 200.046013 39.09319 
L 194.208502 39.09319 
z
" style="fill:#ef8f48;"/>
   </g>
   <g id="patch_54">
    <path clip-path="url(#p74fda1e241)" d="M 190.643657 35.224615 
L 181.579856 29.990769 
L 187.133303 29.990769 
L 193.550496 33.863884 
L 199.762827 29.990769 
L 205.2 29.990769 
L 196.114052 35.224615 
L 190.643657 35.224615 
z
" style="fill:#809df0;"/>
   </g>
   <g id="patch_55">
    <path clip-path="url(#p74fda1e241)" d="M 182.457815 29.336538 
L 182.457815 22.794231 
L 188.72895 22.794231 
L 188.72895 28.225037 
L 204.322041 28.225037 
L 204.322041 29.336538 
L 182.457815 29.336538 
z
" style="fill:#809df0;"/>
   </g>
   <g id="patch_56">
    <path clip-path="url(#p74fda1e241)" d="M 190.398476 21.849231 
L 190.398476 13.152432 
L 181.579856 13.152432 
L 181.579856 11.381538 
L 205.2 11.381538 
L 205.2 13.152432 
L 196.400847 13.152432 
L 196.400847 21.849231 
L 190.398476 21.849231 
z
" style="fill:#29c417;"/>
   </g>
   <g id="matplotlib.axis_1">
    <g id="xtick_1">
     <g id="line2d_2">
      <defs>
       <path d="M 0 0 
L 0 2 
" id="m67b80e0a42" style="stroke:#000000;stroke-width:0.5;"/>
      </defs>
      <g>
       <use style="stroke:#000000;stroke-width:0.5;" x="44.210072" xlink:href="#m67b80e0a42" y="67.5"/>
      </g>
     </g>
     <g id="text_1">
      <text style="font-family:Arial;font-size:7px;font-stretch:normal;font-style:normal;font-weight:normal;text-anchor:middle;" transform="rotate(-0, 44.210072, 75.510469)" x="44.210072" y="75.510469">1</text>
     </g>
    </g>
    <g id="xtick_2">
     <g id="line2d_3">
      <g>
       <use style="stroke:#000000;stroke-width:0.5;" x="69.073381" xlink:href="#m67b80e0a42" y="67.5"/>
      </g>
     </g>
     <g id="text_2">
      <text style="font-family:Arial;font-size:7px;font-stretch:normal;font-style:normal;font-weight:normal;text-anchor:middle;" transform="rotate(-0, 69.073381, 75.510469)" x="69.073381" y="75.510469">2</text>
     </g>
    </g>
    <g id="xtick_3">
     <g id="line2d_4">
      <g>
       <use style="stroke:#000000;stroke-width:0.5;" x="93.936691" xlink:href="#m67b80e0a42" y="67.5"/>
      </g>
     </g>
     <g id="text_3">
      <text style="font-family:Arial;font-size:7px;font-stretch:normal;font-style:normal;font-weight:normal;text-anchor:middle;" transform="rotate(-0, 93.936691, 75.510469)" x="93.936691" y="75.510469">3</text>
     </g>
    </g>
    <g id="xtick_4">
     <g id="line2d_5">
      <g>
       <use style="stroke:#000000;stroke-width:0.5;" x="118.8" xlink:href="#m67b80e0a42" y="67.5"/>
      </g>
     </g>
     <g id="text_4">
      <text style="font-family:Arial;font-size:7px;font-stretch:normal;font-style:normal;font-weight:normal;text-anchor:middle;" transform="rotate(-0, 118.8, 75.510469)" x="118.8" y="75.510469">4</text>
     </g>
    </g>
    <g id="xtick_5">
     <g id="line2d_6">
      <g>
       <use style="stroke:#000000;stroke-width:0.5;" x="143.663309" xlink:href="#m67b80e0a42" y="67.5"/>
      </g>
     </g>
     <g id="text_5">
      <text style="font-family:Arial;font-size:7px;font-stretch:normal;font-style:normal;font-weight:normal;text-anchor:middle;" transform="rotate(-0, 143.663309, 75.510469)" x="143.663309" y="75.510469">5</text>
     </g>
    </g>
    <g id="xtick_6">
     <g id="line2d_7">
      <g>
       <use style="stroke:#000000;stroke-width:0.5;" x="168.526619" xlink:href="#m67b80e0a42" y="67.5"/>
      </g>
     </g>
     <g id="text_6">
      <text style="font-family:Arial;font-size:7px;font-stretch:normal;font-style:normal;font-weight:normal;text-anchor:middle;" transform="rotate(-0, 168.526619, 75.510469)" x="168.526619" y="75.510469">6</text>
     </g>
    </g>
    <g id="xtick_7">
     <g id="line2d_8">
      <g>
       <use style="stroke:#000000;stroke-width:0.5;" x="193.389928" xlink:href="#m67b80e0a42" y="67.5"/>
      </g>
     </g>
     <g id="text_7">
      <text style="font-family:Arial;font-size:7px;font-stretch:normal;font-style:normal;font-weight:normal;text-anchor:middle;" transform="rotate(-0, 193.389928, 75.510469)" x="193.389928" y="75.510469">7</text>
     </g>
    </g>
    <g id="text_8">
     <text style="font-family:Arial;font-size:7px;font-stretch:normal;font-style:normal;font-weight:normal;text-anchor:middle;" transform="rotate(-0, 118.8, 83.912188)" x="118.8" y="83.912188">7-mer position</text>
    </g>
   </g>
   <g id="matplotlib.axis_2">
    <g id="ytick_1">
     <g id="line2d_9">
      <defs>
       <path d="M 0 0 
L -2 0 
" id="m3bb76c98b8" style="stroke:#000000;stroke-width:0.5;"/>
      </defs>
      <g>
       <use style="stroke:#000000;stroke-width:0.5;" x="32.4" xlink:href="#m3bb76c98b8" y="67.5"/>
      </g>
     </g>
     <g id="text_9">
      <text style="font-family:Arial;font-size:7px;font-stretch:normal;font-style:normal;font-weight:normal;text-anchor:end;" transform="rotate(-0, 29.4, 70.005234)" x="29.4" y="70.005234">0</text>
     </g>
    </g>
    <g id="ytick_2">
     <g id="line2d_10">
      <g>
       <use style="stroke:#000000;stroke-width:0.5;" x="32.4" xlink:href="#m3bb76c98b8" y="52.961538"/>
      </g>
     </g>
     <g id="text_10">
      <text style="font-family:Arial;font-size:7px;font-stretch:normal;font-style:normal;font-weight:normal;text-anchor:end;" transform="rotate(-0, 29.4, 55.466773)" x="29.4" y="55.466773">10</text>
     </g>
    </g>
    <g id="ytick_3">
     <g id="line2d_11">
      <g>
       <use style="stroke:#000000;stroke-width:0.5;" x="32.4" xlink:href="#m3bb76c98b8" y="38.423077"/>
      </g>
     </g>
     <g id="text_11">
      <text style="font-family:Arial;font-size:7px;font-stretch:normal;font-style:normal;font-weight:normal;text-anchor:end;" transform="rotate(-0, 29.4, 40.928311)" x="29.4" y="40.928311">20</text>
     </g>
    </g>
    <g id="ytick_4">
     <g id="line2d_12">
      <g>
       <use style="stroke:#000000;stroke-width:0.5;" x="32.4" xlink:href="#m3bb76c98b8" y="23.884615"/>
      </g>
     </g>
     <g id="text_12">
      <text style="font-family:Arial;font-size:7px;font-stretch:normal;font-style:normal;font-weight:normal;text-anchor:end;" transform="rotate(-0, 29.4, 26.38985)" x="29.4" y="26.38985">30</text>
     </g>
    </g>
    <g id="text_13">
     <text style="font-family:Arial;font-size:7px;font-stretch:normal;font-style:normal;font-weight:normal;text-anchor:middle;" transform="rotate(-90, 16.141406, 39.15)" x="16.141406" y="39.15">Frequency</text>
    </g>
   </g>
   <g id="patch_57">
    <path d="M 32.4 67.5 
L 32.4 10.8 
" style="fill:none;stroke:#000000;stroke-linecap:square;stroke-linejoin:miter;stroke-width:0.5;"/>
   </g>
   <g id="patch_58">
    <path d="M 205.2 67.5 
L 205.2 10.8 
" style="fill:none;stroke:#000000;stroke-linecap:square;stroke-linejoin:miter;stroke-width:0.5;"/>
   </g>
   <g id="patch_59">
    <path d="M 32.4 67.5 
L 205.2 67.5 
" style="fill:none;stroke:#000000;stroke-linecap:square;stroke-linejoin:miter;stroke-width:0.5;"/>
   </g>
   <g id="patch_60">
    <path d="M 32.4 10.8 
L 205.2 10.8 
" style="fill:none;stroke:#000000;stroke-linecap:square;stroke-linejoin:miter;stroke-width:0.5;"/>
   </g>
  </g>
 </g>
 <defs>
  <clipPath id="p74fda1e241">
   <rect height="56.7" width="172.8" x="32.4" y="10.8"/>
  </clipPath>
 </defs>
</svg>
