<?xml version="1.0" encoding="utf-8" standalone="no"?>
<!DOCTYPE svg PUBLIC "-//W3C//DTD SVG 1.1//EN"
  "http://www.w3.org/Graphics/SVG/1.1/DTD/svg11.dtd">
<svg xmlns:xlink="http://www.w3.org/1999/xlink" width="432pt" height="288pt" viewBox="0 0 432 288" xmlns="http://www.w3.org/2000/svg" version="1.1">
 <metadata>
  <rdf:RDF xmlns:dc="http://purl.org/dc/elements/1.1/" xmlns:cc="http://creativecommons.org/ns#" xmlns:rdf="http://www.w3.org/1999/02/22-rdf-syntax-ns#">
   <cc:Work>
    <dc:type rdf:resource="http://purl.org/dc/dcmitype/StillImage"/>
    <dc:date>2022-08-02T13:37:24.717547</dc:date>
    <dc:format>image/svg+xml</dc:format>
    <dc:creator>
     <cc:Agent>
      <dc:title>Matplotlib v3.5.1, https://matplotlib.org/</dc:title>
     </cc:Agent>
    </dc:creator>
   </cc:Work>
  </rdf:RDF>
 </metadata>
 <defs>
  <style type="text/css">*{stroke-linejoin: round; stroke-linecap: butt}</style>
 </defs>
 <g id="figure_1">
  <g id="patch_1">
   <path d="M 0 288 
L 432 288 
L 432 0 
L 0 0 
z
" style="fill: #ffffff"/>
  </g>
  <g id="axes_1">
   <g id="patch_2">
    <path d="M 54 252 
L 388.8 252 
L 388.8 34.56 
L 54 34.56 
z
" style="fill: #ffffff"/>
   </g>
   <g id="matplotlib.axis_1">
    <g id="xtick_1">
     <g id="text_1">
      <!-- 0 -->
      <g style="fill: #262626" transform="translate(49.55125 270.4525)scale(0.16 -0.16)">
       <defs>
        <path id="ArialMT-30" d="M 266 2259 
Q 266 3072 433 3567 
Q 600 4063 929 4331 
Q 1259 4600 1759 4600 
Q 2128 4600 2406 4451 
Q 2684 4303 2865 4023 
Q 3047 3744 3150 3342 
Q 3253 2941 3253 2259 
Q 3253 1453 3087 958 
Q 2922 463 2592 192 
Q 2263 -78 1759 -78 
Q 1097 -78 719 397 
Q 266 969 266 2259 
z
M 844 2259 
Q 844 1131 1108 757 
Q 1372 384 1759 384 
Q 2147 384 2411 759 
Q 2675 1134 2675 2259 
Q 2675 3391 2411 3762 
Q 2147 4134 1753 4134 
Q 1366 4134 1134 3806 
Q 844 3388 844 2259 
z
" transform="scale(0.015625)"/>
       </defs>
       <use xlink:href="#ArialMT-30"/>
      </g>
     </g>
    </g>
    <g id="xtick_2">
     <g id="text_2">
      <!-- 5 -->
      <g style="fill: #262626" transform="translate(133.25125 270.4525)scale(0.16 -0.16)">
       <defs>
        <path id="ArialMT-35" d="M 266 1200 
L 856 1250 
Q 922 819 1161 601 
Q 1400 384 1738 384 
Q 2144 384 2425 690 
Q 2706 997 2706 1503 
Q 2706 1984 2436 2262 
Q 2166 2541 1728 2541 
Q 1456 2541 1237 2417 
Q 1019 2294 894 2097 
L 366 2166 
L 809 4519 
L 3088 4519 
L 3088 3981 
L 1259 3981 
L 1013 2750 
Q 1425 3038 1878 3038 
Q 2478 3038 2890 2622 
Q 3303 2206 3303 1553 
Q 3303 931 2941 478 
Q 2500 -78 1738 -78 
Q 1113 -78 717 272 
Q 322 622 266 1200 
z
" transform="scale(0.015625)"/>
       </defs>
       <use xlink:href="#ArialMT-35"/>
      </g>
     </g>
    </g>
    <g id="xtick_3">
     <g id="text_3">
      <!-- 10 -->
      <g style="fill: #262626" transform="translate(212.5025 270.4525)scale(0.16 -0.16)">
       <defs>
        <path id="ArialMT-31" d="M 2384 0 
L 1822 0 
L 1822 3584 
Q 1619 3391 1289 3197 
Q 959 3003 697 2906 
L 697 3450 
Q 1169 3672 1522 3987 
Q 1875 4303 2022 4600 
L 2384 4600 
L 2384 0 
z
" transform="scale(0.015625)"/>
       </defs>
       <use xlink:href="#ArialMT-31"/>
       <use xlink:href="#ArialMT-30" x="55.615234"/>
      </g>
     </g>
    </g>
    <g id="xtick_4">
     <g id="text_4">
      <!-- 15 -->
      <g style="fill: #262626" transform="translate(296.2025 270.4525)scale(0.16 -0.16)">
       <use xlink:href="#ArialMT-31"/>
       <use xlink:href="#ArialMT-35" x="55.615234"/>
      </g>
     </g>
    </g>
    <g id="xtick_5">
     <g id="text_5">
      <!-- 20 -->
      <g style="fill: #262626" transform="translate(379.9025 270.4525)scale(0.16 -0.16)">
       <defs>
        <path id="ArialMT-32" d="M 3222 541 
L 3222 0 
L 194 0 
Q 188 203 259 391 
Q 375 700 629 1000 
Q 884 1300 1366 1694 
Q 2113 2306 2375 2664 
Q 2638 3022 2638 3341 
Q 2638 3675 2398 3904 
Q 2159 4134 1775 4134 
Q 1369 4134 1125 3890 
Q 881 3647 878 3216 
L 300 3275 
Q 359 3922 746 4261 
Q 1134 4600 1788 4600 
Q 2447 4600 2831 4234 
Q 3216 3869 3216 3328 
Q 3216 3053 3103 2787 
Q 2991 2522 2730 2228 
Q 2469 1934 1863 1422 
Q 1356 997 1212 845 
Q 1069 694 975 541 
L 3222 541 
z
" transform="scale(0.015625)"/>
       </defs>
       <use xlink:href="#ArialMT-32"/>
       <use xlink:href="#ArialMT-30" x="55.615234"/>
      </g>
     </g>
    </g>
    <g id="text_6">
     <!-- Starter Virus RPM -->
     <g style="fill: #262626" transform="translate(157.085 289.085)scale(0.16 -0.16)">
      <defs>
       <path id="ArialMT-53" d="M 288 1472 
L 859 1522 
Q 900 1178 1048 958 
Q 1197 738 1509 602 
Q 1822 466 2213 466 
Q 2559 466 2825 569 
Q 3091 672 3220 851 
Q 3350 1031 3350 1244 
Q 3350 1459 3225 1620 
Q 3100 1781 2813 1891 
Q 2628 1963 1997 2114 
Q 1366 2266 1113 2400 
Q 784 2572 623 2826 
Q 463 3081 463 3397 
Q 463 3744 659 4045 
Q 856 4347 1234 4503 
Q 1613 4659 2075 4659 
Q 2584 4659 2973 4495 
Q 3363 4331 3572 4012 
Q 3781 3694 3797 3291 
L 3216 3247 
Q 3169 3681 2898 3903 
Q 2628 4125 2100 4125 
Q 1550 4125 1298 3923 
Q 1047 3722 1047 3438 
Q 1047 3191 1225 3031 
Q 1400 2872 2139 2705 
Q 2878 2538 3153 2413 
Q 3553 2228 3743 1945 
Q 3934 1663 3934 1294 
Q 3934 928 3725 604 
Q 3516 281 3123 101 
Q 2731 -78 2241 -78 
Q 1619 -78 1198 103 
Q 778 284 539 648 
Q 300 1013 288 1472 
z
" transform="scale(0.015625)"/>
       <path id="ArialMT-74" d="M 1650 503 
L 1731 6 
Q 1494 -44 1306 -44 
Q 1000 -44 831 53 
Q 663 150 594 308 
Q 525 466 525 972 
L 525 2881 
L 113 2881 
L 113 3319 
L 525 3319 
L 525 4141 
L 1084 4478 
L 1084 3319 
L 1650 3319 
L 1650 2881 
L 1084 2881 
L 1084 941 
Q 1084 700 1114 631 
Q 1144 563 1211 522 
Q 1278 481 1403 481 
Q 1497 481 1650 503 
z
" transform="scale(0.015625)"/>
       <path id="ArialMT-61" d="M 2588 409 
Q 2275 144 1986 34 
Q 1697 -75 1366 -75 
Q 819 -75 525 192 
Q 231 459 231 875 
Q 231 1119 342 1320 
Q 453 1522 633 1644 
Q 813 1766 1038 1828 
Q 1203 1872 1538 1913 
Q 2219 1994 2541 2106 
Q 2544 2222 2544 2253 
Q 2544 2597 2384 2738 
Q 2169 2928 1744 2928 
Q 1347 2928 1158 2789 
Q 969 2650 878 2297 
L 328 2372 
Q 403 2725 575 2942 
Q 747 3159 1072 3276 
Q 1397 3394 1825 3394 
Q 2250 3394 2515 3294 
Q 2781 3194 2906 3042 
Q 3031 2891 3081 2659 
Q 3109 2516 3109 2141 
L 3109 1391 
Q 3109 606 3145 398 
Q 3181 191 3288 0 
L 2700 0 
Q 2613 175 2588 409 
z
M 2541 1666 
Q 2234 1541 1622 1453 
Q 1275 1403 1131 1340 
Q 988 1278 909 1158 
Q 831 1038 831 891 
Q 831 666 1001 516 
Q 1172 366 1500 366 
Q 1825 366 2078 508 
Q 2331 650 2450 897 
Q 2541 1088 2541 1459 
L 2541 1666 
z
" transform="scale(0.015625)"/>
       <path id="ArialMT-72" d="M 416 0 
L 416 3319 
L 922 3319 
L 922 2816 
Q 1116 3169 1280 3281 
Q 1444 3394 1641 3394 
Q 1925 3394 2219 3213 
L 2025 2691 
Q 1819 2813 1613 2813 
Q 1428 2813 1281 2702 
Q 1134 2591 1072 2394 
Q 978 2094 978 1738 
L 978 0 
L 416 0 
z
" transform="scale(0.015625)"/>
       <path id="ArialMT-65" d="M 2694 1069 
L 3275 997 
Q 3138 488 2766 206 
Q 2394 -75 1816 -75 
Q 1088 -75 661 373 
Q 234 822 234 1631 
Q 234 2469 665 2931 
Q 1097 3394 1784 3394 
Q 2450 3394 2872 2941 
Q 3294 2488 3294 1666 
Q 3294 1616 3291 1516 
L 816 1516 
Q 847 969 1125 678 
Q 1403 388 1819 388 
Q 2128 388 2347 550 
Q 2566 713 2694 1069 
z
M 847 1978 
L 2700 1978 
Q 2663 2397 2488 2606 
Q 2219 2931 1791 2931 
Q 1403 2931 1139 2672 
Q 875 2413 847 1978 
z
" transform="scale(0.015625)"/>
       <path id="ArialMT-20" transform="scale(0.015625)"/>
       <path id="ArialMT-56" d="M 1803 0 
L 28 4581 
L 684 4581 
L 1875 1253 
Q 2019 853 2116 503 
Q 2222 878 2363 1253 
L 3600 4581 
L 4219 4581 
L 2425 0 
L 1803 0 
z
" transform="scale(0.015625)"/>
       <path id="ArialMT-69" d="M 425 3934 
L 425 4581 
L 988 4581 
L 988 3934 
L 425 3934 
z
M 425 0 
L 425 3319 
L 988 3319 
L 988 0 
L 425 0 
z
" transform="scale(0.015625)"/>
       <path id="ArialMT-75" d="M 2597 0 
L 2597 488 
Q 2209 -75 1544 -75 
Q 1250 -75 995 37 
Q 741 150 617 320 
Q 494 491 444 738 
Q 409 903 409 1263 
L 409 3319 
L 972 3319 
L 972 1478 
Q 972 1038 1006 884 
Q 1059 663 1231 536 
Q 1403 409 1656 409 
Q 1909 409 2131 539 
Q 2353 669 2445 892 
Q 2538 1116 2538 1541 
L 2538 3319 
L 3100 3319 
L 3100 0 
L 2597 0 
z
" transform="scale(0.015625)"/>
       <path id="ArialMT-73" d="M 197 991 
L 753 1078 
Q 800 744 1014 566 
Q 1228 388 1613 388 
Q 2000 388 2187 545 
Q 2375 703 2375 916 
Q 2375 1106 2209 1216 
Q 2094 1291 1634 1406 
Q 1016 1563 777 1677 
Q 538 1791 414 1992 
Q 291 2194 291 2438 
Q 291 2659 392 2848 
Q 494 3038 669 3163 
Q 800 3259 1026 3326 
Q 1253 3394 1513 3394 
Q 1903 3394 2198 3281 
Q 2494 3169 2634 2976 
Q 2775 2784 2828 2463 
L 2278 2388 
Q 2241 2644 2061 2787 
Q 1881 2931 1553 2931 
Q 1166 2931 1000 2803 
Q 834 2675 834 2503 
Q 834 2394 903 2306 
Q 972 2216 1119 2156 
Q 1203 2125 1616 2013 
Q 2213 1853 2448 1751 
Q 2684 1650 2818 1456 
Q 2953 1263 2953 975 
Q 2953 694 2789 445 
Q 2625 197 2315 61 
Q 2006 -75 1616 -75 
Q 969 -75 630 194 
Q 291 463 197 991 
z
" transform="scale(0.015625)"/>
       <path id="ArialMT-52" d="M 503 0 
L 503 4581 
L 2534 4581 
Q 3147 4581 3465 4457 
Q 3784 4334 3975 4021 
Q 4166 3709 4166 3331 
Q 4166 2844 3850 2509 
Q 3534 2175 2875 2084 
Q 3116 1969 3241 1856 
Q 3506 1613 3744 1247 
L 4541 0 
L 3778 0 
L 3172 953 
Q 2906 1366 2734 1584 
Q 2563 1803 2427 1890 
Q 2291 1978 2150 2013 
Q 2047 2034 1813 2034 
L 1109 2034 
L 1109 0 
L 503 0 
z
M 1109 2559 
L 2413 2559 
Q 2828 2559 3062 2645 
Q 3297 2731 3419 2920 
Q 3541 3109 3541 3331 
Q 3541 3656 3305 3865 
Q 3069 4075 2559 4075 
L 1109 4075 
L 1109 2559 
z
" transform="scale(0.015625)"/>
       <path id="ArialMT-50" d="M 494 0 
L 494 4581 
L 2222 4581 
Q 2678 4581 2919 4538 
Q 3256 4481 3484 4323 
Q 3713 4166 3852 3881 
Q 3991 3597 3991 3256 
Q 3991 2672 3619 2267 
Q 3247 1863 2275 1863 
L 1100 1863 
L 1100 0 
L 494 0 
z
M 1100 2403 
L 2284 2403 
Q 2872 2403 3119 2622 
Q 3366 2841 3366 3238 
Q 3366 3525 3220 3729 
Q 3075 3934 2838 4000 
Q 2684 4041 2272 4041 
L 1100 4041 
L 1100 2403 
z
" transform="scale(0.015625)"/>
       <path id="ArialMT-4d" d="M 475 0 
L 475 4581 
L 1388 4581 
L 2472 1338 
Q 2622 884 2691 659 
Q 2769 909 2934 1394 
L 4031 4581 
L 4847 4581 
L 4847 0 
L 4263 0 
L 4263 3834 
L 2931 0 
L 2384 0 
L 1059 3900 
L 1059 0 
L 475 0 
z
" transform="scale(0.015625)"/>
      </defs>
      <use xlink:href="#ArialMT-53"/>
      <use xlink:href="#ArialMT-74" x="66.699219"/>
      <use xlink:href="#ArialMT-61" x="94.482422"/>
      <use xlink:href="#ArialMT-72" x="150.097656"/>
      <use xlink:href="#ArialMT-74" x="183.398438"/>
      <use xlink:href="#ArialMT-65" x="211.181641"/>
      <use xlink:href="#ArialMT-72" x="266.796875"/>
      <use xlink:href="#ArialMT-20" x="300.097656"/>
      <use xlink:href="#ArialMT-56" x="327.880859"/>
      <use xlink:href="#ArialMT-69" x="392.830078"/>
      <use xlink:href="#ArialMT-72" x="415.046875"/>
      <use xlink:href="#ArialMT-75" x="448.347656"/>
      <use xlink:href="#ArialMT-73" x="503.962891"/>
      <use xlink:href="#ArialMT-20" x="553.962891"/>
      <use xlink:href="#ArialMT-52" x="581.746094"/>
      <use xlink:href="#ArialMT-50" x="653.962891"/>
      <use xlink:href="#ArialMT-4d" x="720.662109"/>
     </g>
    </g>
   </g>
   <g id="matplotlib.axis_2">
    <g id="ytick_1">
     <g id="text_7">
      <!-- 0.00 -->
      <g style="fill: #262626" transform="translate(15.8625 257.72625)scale(0.16 -0.16)">
       <defs>
        <path id="ArialMT-2e" d="M 581 0 
L 581 641 
L 1222 641 
L 1222 0 
L 581 0 
z
" transform="scale(0.015625)"/>
       </defs>
       <use xlink:href="#ArialMT-30"/>
       <use xlink:href="#ArialMT-2e" x="55.615234"/>
       <use xlink:href="#ArialMT-30" x="83.398438"/>
       <use xlink:href="#ArialMT-30" x="139.013672"/>
      </g>
     </g>
    </g>
    <g id="ytick_2">
     <g id="text_8">
      <!-- 0.02 -->
      <g style="fill: #262626" transform="translate(15.8625 202.377886)scale(0.16 -0.16)">
       <use xlink:href="#ArialMT-30"/>
       <use xlink:href="#ArialMT-2e" x="55.615234"/>
       <use xlink:href="#ArialMT-30" x="83.398438"/>
       <use xlink:href="#ArialMT-32" x="139.013672"/>
      </g>
     </g>
    </g>
    <g id="ytick_3">
     <g id="text_9">
      <!-- 0.04 -->
      <g style="fill: #262626" transform="translate(15.8625 147.029523)scale(0.16 -0.16)">
       <defs>
        <path id="ArialMT-34" d="M 2069 0 
L 2069 1097 
L 81 1097 
L 81 1613 
L 2172 4581 
L 2631 4581 
L 2631 1613 
L 3250 1613 
L 3250 1097 
L 2631 1097 
L 2631 0 
L 2069 0 
z
M 2069 1613 
L 2069 3678 
L 634 1613 
L 2069 1613 
z
" transform="scale(0.015625)"/>
       </defs>
       <use xlink:href="#ArialMT-30"/>
       <use xlink:href="#ArialMT-2e" x="55.615234"/>
       <use xlink:href="#ArialMT-30" x="83.398438"/>
       <use xlink:href="#ArialMT-34" x="139.013672"/>
      </g>
     </g>
    </g>
    <g id="ytick_4">
     <g id="text_10">
      <!-- 0.06 -->
      <g style="fill: #262626" transform="translate(15.8625 91.681159)scale(0.16 -0.16)">
       <defs>
        <path id="ArialMT-36" d="M 3184 3459 
L 2625 3416 
Q 2550 3747 2413 3897 
Q 2184 4138 1850 4138 
Q 1581 4138 1378 3988 
Q 1113 3794 959 3422 
Q 806 3050 800 2363 
Q 1003 2672 1297 2822 
Q 1591 2972 1913 2972 
Q 2475 2972 2870 2558 
Q 3266 2144 3266 1488 
Q 3266 1056 3080 686 
Q 2894 316 2569 119 
Q 2244 -78 1831 -78 
Q 1128 -78 684 439 
Q 241 956 241 2144 
Q 241 3472 731 4075 
Q 1159 4600 1884 4600 
Q 2425 4600 2770 4297 
Q 3116 3994 3184 3459 
z
M 888 1484 
Q 888 1194 1011 928 
Q 1134 663 1356 523 
Q 1578 384 1822 384 
Q 2178 384 2434 671 
Q 2691 959 2691 1453 
Q 2691 1928 2437 2201 
Q 2184 2475 1800 2475 
Q 1419 2475 1153 2201 
Q 888 1928 888 1484 
z
" transform="scale(0.015625)"/>
       </defs>
       <use xlink:href="#ArialMT-30"/>
       <use xlink:href="#ArialMT-2e" x="55.615234"/>
       <use xlink:href="#ArialMT-30" x="83.398438"/>
       <use xlink:href="#ArialMT-36" x="139.013672"/>
      </g>
     </g>
    </g>
    <g id="text_11">
     <!-- Proportion -->
     <g style="fill: #262626" transform="translate(8.6825 180.1875)rotate(-90)scale(0.16 -0.16)">
      <defs>
       <path id="ArialMT-6f" d="M 213 1659 
Q 213 2581 725 3025 
Q 1153 3394 1769 3394 
Q 2453 3394 2887 2945 
Q 3322 2497 3322 1706 
Q 3322 1066 3130 698 
Q 2938 331 2570 128 
Q 2203 -75 1769 -75 
Q 1072 -75 642 372 
Q 213 819 213 1659 
z
M 791 1659 
Q 791 1022 1069 705 
Q 1347 388 1769 388 
Q 2188 388 2466 706 
Q 2744 1025 2744 1678 
Q 2744 2294 2464 2611 
Q 2184 2928 1769 2928 
Q 1347 2928 1069 2612 
Q 791 2297 791 1659 
z
" transform="scale(0.015625)"/>
       <path id="ArialMT-70" d="M 422 -1272 
L 422 3319 
L 934 3319 
L 934 2888 
Q 1116 3141 1344 3267 
Q 1572 3394 1897 3394 
Q 2322 3394 2647 3175 
Q 2972 2956 3137 2557 
Q 3303 2159 3303 1684 
Q 3303 1175 3120 767 
Q 2938 359 2589 142 
Q 2241 -75 1856 -75 
Q 1575 -75 1351 44 
Q 1128 163 984 344 
L 984 -1272 
L 422 -1272 
z
M 931 1641 
Q 931 1000 1190 694 
Q 1450 388 1819 388 
Q 2194 388 2461 705 
Q 2728 1022 2728 1688 
Q 2728 2322 2467 2637 
Q 2206 2953 1844 2953 
Q 1484 2953 1207 2617 
Q 931 2281 931 1641 
z
" transform="scale(0.015625)"/>
       <path id="ArialMT-6e" d="M 422 0 
L 422 3319 
L 928 3319 
L 928 2847 
Q 1294 3394 1984 3394 
Q 2284 3394 2536 3286 
Q 2788 3178 2913 3003 
Q 3038 2828 3088 2588 
Q 3119 2431 3119 2041 
L 3119 0 
L 2556 0 
L 2556 2019 
Q 2556 2363 2490 2533 
Q 2425 2703 2258 2804 
Q 2091 2906 1866 2906 
Q 1506 2906 1245 2678 
Q 984 2450 984 1813 
L 984 0 
L 422 0 
z
" transform="scale(0.015625)"/>
      </defs>
      <use xlink:href="#ArialMT-50"/>
      <use xlink:href="#ArialMT-72" x="66.699219"/>
      <use xlink:href="#ArialMT-6f" x="100"/>
      <use xlink:href="#ArialMT-70" x="155.615234"/>
      <use xlink:href="#ArialMT-6f" x="211.230469"/>
      <use xlink:href="#ArialMT-72" x="266.845703"/>
      <use xlink:href="#ArialMT-74" x="300.146484"/>
      <use xlink:href="#ArialMT-69" x="327.929688"/>
      <use xlink:href="#ArialMT-6f" x="350.146484"/>
      <use xlink:href="#ArialMT-6e" x="405.761719"/>
     </g>
    </g>
   </g>
   <g id="patch_3">
    <path d="M 54 252 
L 60.696 252 
L 60.696 169.7762 
L 54 169.7762 
z
" clip-path="url(#pbbb5789e3b)" style="fill: #c44e52; fill-opacity: 0.75"/>
   </g>
   <g id="patch_4">
    <path d="M 60.696 252 
L 67.392 252 
L 67.392 94.600154 
L 60.696 94.600154 
z
" clip-path="url(#pbbb5789e3b)" style="fill: #c44e52; fill-opacity: 0.75"/>
   </g>
   <g id="patch_5">
    <path d="M 67.392 252 
L 74.088 252 
L 74.088 92.250903 
L 67.392 92.250903 
z
" clip-path="url(#pbbb5789e3b)" style="fill: #c44e52; fill-opacity: 0.75"/>
   </g>
   <g id="patch_6">
    <path d="M 74.088 252 
L 80.784 252 
L 80.784 120.44192 
L 74.088 120.44192 
z
" clip-path="url(#pbbb5789e3b)" style="fill: #c44e52; fill-opacity: 0.75"/>
   </g>
   <g id="patch_7">
    <path d="M 80.784 252 
L 87.48 252 
L 87.48 87.5524 
L 80.784 87.5524 
z
" clip-path="url(#pbbb5789e3b)" style="fill: #c44e52; fill-opacity: 0.75"/>
   </g>
   <g id="patch_8">
    <path d="M 87.48 252 
L 94.176 252 
L 94.176 113.394166 
L 87.48 113.394166 
z
" clip-path="url(#pbbb5789e3b)" style="fill: #c44e52; fill-opacity: 0.75"/>
   </g>
   <g id="patch_9">
    <path d="M 94.176 252 
L 100.872 252 
L 100.872 106.346411 
L 94.176 106.346411 
z
" clip-path="url(#pbbb5789e3b)" style="fill: #c44e52; fill-opacity: 0.75"/>
   </g>
   <g id="patch_10">
    <path d="M 100.872 252 
L 107.568 252 
L 107.568 146.283686 
L 100.872 146.283686 
z
" clip-path="url(#pbbb5789e3b)" style="fill: #c44e52; fill-opacity: 0.75"/>
   </g>
   <g id="patch_11">
    <path d="M 107.568 252 
L 114.264 252 
L 114.264 115.743417 
L 107.568 115.743417 
z
" clip-path="url(#pbbb5789e3b)" style="fill: #c44e52; fill-opacity: 0.75"/>
   </g>
   <g id="patch_12">
    <path d="M 114.264 252 
L 120.96 252 
L 120.96 150.982189 
L 114.264 150.982189 
z
" clip-path="url(#pbbb5789e3b)" style="fill: #c44e52; fill-opacity: 0.75"/>
   </g>
   <g id="patch_13">
    <path d="M 120.96 252 
L 127.656 252 
L 127.656 132.188177 
L 120.96 132.188177 
z
" clip-path="url(#pbbb5789e3b)" style="fill: #c44e52; fill-opacity: 0.75"/>
   </g>
   <g id="patch_14">
    <path d="M 127.656 252 
L 134.352 252 
L 134.352 146.283686 
L 127.656 146.283686 
z
" clip-path="url(#pbbb5789e3b)" style="fill: #c44e52; fill-opacity: 0.75"/>
   </g>
   <g id="patch_15">
    <path d="M 134.352 252 
L 141.048 252 
L 141.048 129.838926 
L 134.352 129.838926 
z
" clip-path="url(#pbbb5789e3b)" style="fill: #c44e52; fill-opacity: 0.75"/>
   </g>
   <g id="patch_16">
    <path d="M 141.048 252 
L 147.744 252 
L 147.744 169.7762 
L 141.048 169.7762 
z
" clip-path="url(#pbbb5789e3b)" style="fill: #c44e52; fill-opacity: 0.75"/>
   </g>
   <g id="patch_17">
    <path d="M 147.744 252 
L 154.44 252 
L 154.44 176.823954 
L 147.744 176.823954 
z
" clip-path="url(#pbbb5789e3b)" style="fill: #c44e52; fill-opacity: 0.75"/>
   </g>
   <g id="patch_18">
    <path d="M 154.44 252 
L 161.136 252 
L 161.136 162.728446 
L 154.44 162.728446 
z
" clip-path="url(#pbbb5789e3b)" style="fill: #c44e52; fill-opacity: 0.75"/>
   </g>
   <g id="patch_19">
    <path d="M 161.136 252 
L 167.832 252 
L 167.832 186.22096 
L 161.136 186.22096 
z
" clip-path="url(#pbbb5789e3b)" style="fill: #c44e52; fill-opacity: 0.75"/>
   </g>
   <g id="patch_20">
    <path d="M 167.832 252 
L 174.528 252 
L 174.528 176.823954 
L 167.832 176.823954 
z
" clip-path="url(#pbbb5789e3b)" style="fill: #c44e52; fill-opacity: 0.75"/>
   </g>
   <g id="patch_21">
    <path d="M 174.528 252 
L 181.224 252 
L 181.224 195.617966 
L 174.528 195.617966 
z
" clip-path="url(#pbbb5789e3b)" style="fill: #c44e52; fill-opacity: 0.75"/>
   </g>
   <g id="patch_22">
    <path d="M 181.224 252 
L 187.92 252 
L 187.92 186.22096 
L 181.224 186.22096 
z
" clip-path="url(#pbbb5789e3b)" style="fill: #c44e52; fill-opacity: 0.75"/>
   </g>
   <g id="patch_23">
    <path d="M 187.92 252 
L 194.616 252 
L 194.616 200.316469 
L 187.92 200.316469 
z
" clip-path="url(#pbbb5789e3b)" style="fill: #c44e52; fill-opacity: 0.75"/>
   </g>
   <g id="patch_24">
    <path d="M 194.616 252 
L 201.312 252 
L 201.312 205.014971 
L 194.616 205.014971 
z
" clip-path="url(#pbbb5789e3b)" style="fill: #c44e52; fill-opacity: 0.75"/>
   </g>
   <g id="patch_25">
    <path d="M 201.312 252 
L 208.008 252 
L 208.008 190.919463 
L 201.312 190.919463 
z
" clip-path="url(#pbbb5789e3b)" style="fill: #c44e52; fill-opacity: 0.75"/>
   </g>
   <g id="patch_26">
    <path d="M 208.008 252 
L 214.704 252 
L 214.704 209.713474 
L 208.008 209.713474 
z
" clip-path="url(#pbbb5789e3b)" style="fill: #c44e52; fill-opacity: 0.75"/>
   </g>
   <g id="patch_27">
    <path d="M 214.704 252 
L 221.4 252 
L 221.4 212.062726 
L 214.704 212.062726 
z
" clip-path="url(#pbbb5789e3b)" style="fill: #c44e52; fill-opacity: 0.75"/>
   </g>
   <g id="patch_28">
    <path d="M 221.4 252 
L 228.096 252 
L 228.096 223.808983 
L 221.4 223.808983 
z
" clip-path="url(#pbbb5789e3b)" style="fill: #c44e52; fill-opacity: 0.75"/>
   </g>
   <g id="patch_29">
    <path d="M 228.096 252 
L 234.792 252 
L 234.792 214.411977 
L 228.096 214.411977 
z
" clip-path="url(#pbbb5789e3b)" style="fill: #c44e52; fill-opacity: 0.75"/>
   </g>
   <g id="patch_30">
    <path d="M 234.792 252 
L 241.488 252 
L 241.488 223.808983 
L 234.792 223.808983 
z
" clip-path="url(#pbbb5789e3b)" style="fill: #c44e52; fill-opacity: 0.75"/>
   </g>
   <g id="patch_31">
    <path d="M 241.488 252 
L 248.184 252 
L 248.184 221.459731 
L 241.488 221.459731 
z
" clip-path="url(#pbbb5789e3b)" style="fill: #c44e52; fill-opacity: 0.75"/>
   </g>
   <g id="patch_32">
    <path d="M 248.184 252 
L 254.88 252 
L 254.88 228.507486 
L 248.184 228.507486 
z
" clip-path="url(#pbbb5789e3b)" style="fill: #c44e52; fill-opacity: 0.75"/>
   </g>
   <g id="patch_33">
    <path d="M 254.88 252 
L 261.576 252 
L 261.576 230.856737 
L 254.88 230.856737 
z
" clip-path="url(#pbbb5789e3b)" style="fill: #c44e52; fill-opacity: 0.75"/>
   </g>
   <g id="patch_34">
    <path d="M 261.576 252 
L 268.272 252 
L 268.272 226.158234 
L 261.576 226.158234 
z
" clip-path="url(#pbbb5789e3b)" style="fill: #c44e52; fill-opacity: 0.75"/>
   </g>
   <g id="patch_35">
    <path d="M 268.272 252 
L 274.968 252 
L 274.968 244.952246 
L 268.272 244.952246 
z
" clip-path="url(#pbbb5789e3b)" style="fill: #c44e52; fill-opacity: 0.75"/>
   </g>
   <g id="patch_36">
    <path d="M 274.968 252 
L 281.664 252 
L 281.664 237.904491 
L 274.968 237.904491 
z
" clip-path="url(#pbbb5789e3b)" style="fill: #c44e52; fill-opacity: 0.75"/>
   </g>
   <g id="patch_37">
    <path d="M 281.664 252 
L 288.36 252 
L 288.36 237.904491 
L 281.664 237.904491 
z
" clip-path="url(#pbbb5789e3b)" style="fill: #c44e52; fill-opacity: 0.75"/>
   </g>
   <g id="patch_38">
    <path d="M 288.36 252 
L 295.056 252 
L 295.056 242.602994 
L 288.36 242.602994 
z
" clip-path="url(#pbbb5789e3b)" style="fill: #c44e52; fill-opacity: 0.75"/>
   </g>
   <g id="patch_39">
    <path d="M 295.056 252 
L 301.752 252 
L 301.752 228.507486 
L 295.056 228.507486 
z
" clip-path="url(#pbbb5789e3b)" style="fill: #c44e52; fill-opacity: 0.75"/>
   </g>
   <g id="patch_40">
    <path d="M 301.752 252 
L 308.448 252 
L 308.448 233.205989 
L 301.752 233.205989 
z
" clip-path="url(#pbbb5789e3b)" style="fill: #c44e52; fill-opacity: 0.75"/>
   </g>
   <g id="patch_41">
    <path d="M 308.448 252 
L 315.144 252 
L 315.144 233.205989 
L 308.448 233.205989 
z
" clip-path="url(#pbbb5789e3b)" style="fill: #c44e52; fill-opacity: 0.75"/>
   </g>
   <g id="patch_42">
    <path d="M 315.144 252 
L 321.84 252 
L 321.84 244.952246 
L 315.144 244.952246 
z
" clip-path="url(#pbbb5789e3b)" style="fill: #c44e52; fill-opacity: 0.75"/>
   </g>
   <g id="patch_43">
    <path d="M 321.84 252 
L 328.536 252 
L 328.536 242.602994 
L 321.84 242.602994 
z
" clip-path="url(#pbbb5789e3b)" style="fill: #c44e52; fill-opacity: 0.75"/>
   </g>
   <g id="patch_44">
    <path d="M 328.536 252 
L 335.232 252 
L 335.232 244.952246 
L 328.536 244.952246 
z
" clip-path="url(#pbbb5789e3b)" style="fill: #c44e52; fill-opacity: 0.75"/>
   </g>
   <g id="patch_45">
    <path d="M 335.232 252 
L 341.928 252 
L 341.928 244.952246 
L 335.232 244.952246 
z
" clip-path="url(#pbbb5789e3b)" style="fill: #c44e52; fill-opacity: 0.75"/>
   </g>
   <g id="patch_46">
    <path d="M 341.928 252 
L 348.624 252 
L 348.624 249.650749 
L 341.928 249.650749 
z
" clip-path="url(#pbbb5789e3b)" style="fill: #c44e52; fill-opacity: 0.75"/>
   </g>
   <g id="patch_47">
    <path d="M 348.624 252 
L 355.32 252 
L 355.32 252 
L 348.624 252 
z
" clip-path="url(#pbbb5789e3b)" style="fill: #c44e52; fill-opacity: 0.75"/>
   </g>
   <g id="patch_48">
    <path d="M 355.32 252 
L 362.016 252 
L 362.016 247.301497 
L 355.32 247.301497 
z
" clip-path="url(#pbbb5789e3b)" style="fill: #c44e52; fill-opacity: 0.75"/>
   </g>
   <g id="patch_49">
    <path d="M 362.016 252 
L 368.712 252 
L 368.712 252 
L 362.016 252 
z
" clip-path="url(#pbbb5789e3b)" style="fill: #c44e52; fill-opacity: 0.75"/>
   </g>
   <g id="patch_50">
    <path d="M 368.712 252 
L 375.408 252 
L 375.408 249.650749 
L 368.712 249.650749 
z
" clip-path="url(#pbbb5789e3b)" style="fill: #c44e52; fill-opacity: 0.75"/>
   </g>
   <g id="patch_51">
    <path d="M 375.408 252 
L 382.104 252 
L 382.104 249.650749 
L 375.408 249.650749 
z
" clip-path="url(#pbbb5789e3b)" style="fill: #c44e52; fill-opacity: 0.75"/>
   </g>
   <g id="patch_52">
    <path d="M 382.104 252 
L 388.8 252 
L 388.8 249.650749 
L 382.104 249.650749 
z
" clip-path="url(#pbbb5789e3b)" style="fill: #c44e52; fill-opacity: 0.75"/>
   </g>
   <g id="patch_53">
    <path d="M 54 252 
L 60.696 252 
L 60.696 233.174026 
L 54 233.174026 
z
" clip-path="url(#pbbb5789e3b)" style="fill: #55a868; fill-opacity: 0.75"/>
   </g>
   <g id="patch_54">
    <path d="M 60.696 252 
L 67.392 252 
L 67.392 131.513766 
L 60.696 131.513766 
z
" clip-path="url(#pbbb5789e3b)" style="fill: #55a868; fill-opacity: 0.75"/>
   </g>
   <g id="patch_55">
    <path d="M 67.392 252 
L 74.088 252 
L 74.088 86.331429 
L 67.392 86.331429 
z
" clip-path="url(#pbbb5789e3b)" style="fill: #55a868; fill-opacity: 0.75"/>
   </g>
   <g id="patch_56">
    <path d="M 74.088 252 
L 80.784 252 
L 80.784 44.914286 
L 74.088 44.914286 
z
" clip-path="url(#pbbb5789e3b)" style="fill: #55a868; fill-opacity: 0.75"/>
   </g>
   <g id="patch_57">
    <path d="M 80.784 252 
L 87.48 252 
L 87.48 59.975065 
L 80.784 59.975065 
z
" clip-path="url(#pbbb5789e3b)" style="fill: #55a868; fill-opacity: 0.75"/>
   </g>
   <g id="patch_58">
    <path d="M 87.48 252 
L 94.176 252 
L 94.176 63.74026 
L 87.48 63.74026 
z
" clip-path="url(#pbbb5789e3b)" style="fill: #55a868; fill-opacity: 0.75"/>
   </g>
   <g id="patch_59">
    <path d="M 94.176 252 
L 100.872 252 
L 100.872 93.861818 
L 94.176 93.861818 
z
" clip-path="url(#pbbb5789e3b)" style="fill: #55a868; fill-opacity: 0.75"/>
   </g>
   <g id="patch_60">
    <path d="M 100.872 252 
L 107.568 252 
L 107.568 67.505455 
L 100.872 67.505455 
z
" clip-path="url(#pbbb5789e3b)" style="fill: #55a868; fill-opacity: 0.75"/>
   </g>
   <g id="patch_61">
    <path d="M 107.568 252 
L 114.264 252 
L 114.264 116.452987 
L 107.568 116.452987 
z
" clip-path="url(#pbbb5789e3b)" style="fill: #55a868; fill-opacity: 0.75"/>
   </g>
   <g id="patch_62">
    <path d="M 114.264 252 
L 120.96 252 
L 120.96 97.627013 
L 114.264 97.627013 
z
" clip-path="url(#pbbb5789e3b)" style="fill: #55a868; fill-opacity: 0.75"/>
   </g>
   <g id="patch_63">
    <path d="M 120.96 252 
L 127.656 252 
L 127.656 116.452987 
L 120.96 116.452987 
z
" clip-path="url(#pbbb5789e3b)" style="fill: #55a868; fill-opacity: 0.75"/>
   </g>
   <g id="patch_64">
    <path d="M 127.656 252 
L 134.352 252 
L 134.352 146.574545 
L 127.656 146.574545 
z
" clip-path="url(#pbbb5789e3b)" style="fill: #55a868; fill-opacity: 0.75"/>
   </g>
   <g id="patch_65">
    <path d="M 134.352 252 
L 141.048 252 
L 141.048 165.400519 
L 134.352 165.400519 
z
" clip-path="url(#pbbb5789e3b)" style="fill: #55a868; fill-opacity: 0.75"/>
   </g>
   <g id="patch_66">
    <path d="M 141.048 252 
L 147.744 252 
L 147.744 154.104935 
L 141.048 154.104935 
z
" clip-path="url(#pbbb5789e3b)" style="fill: #55a868; fill-opacity: 0.75"/>
   </g>
   <g id="patch_67">
    <path d="M 147.744 252 
L 154.44 252 
L 154.44 157.87013 
L 147.744 157.87013 
z
" clip-path="url(#pbbb5789e3b)" style="fill: #55a868; fill-opacity: 0.75"/>
   </g>
   <g id="patch_68">
    <path d="M 154.44 252 
L 161.136 252 
L 161.136 184.226494 
L 154.44 184.226494 
z
" clip-path="url(#pbbb5789e3b)" style="fill: #55a868; fill-opacity: 0.75"/>
   </g>
   <g id="patch_69">
    <path d="M 161.136 252 
L 167.832 252 
L 167.832 195.522078 
L 161.136 195.522078 
z
" clip-path="url(#pbbb5789e3b)" style="fill: #55a868; fill-opacity: 0.75"/>
   </g>
   <g id="patch_70">
    <path d="M 167.832 252 
L 174.528 252 
L 174.528 199.287273 
L 167.832 199.287273 
z
" clip-path="url(#pbbb5789e3b)" style="fill: #55a868; fill-opacity: 0.75"/>
   </g>
   <g id="patch_71">
    <path d="M 174.528 252 
L 181.224 252 
L 181.224 214.348052 
L 174.528 214.348052 
z
" clip-path="url(#pbbb5789e3b)" style="fill: #55a868; fill-opacity: 0.75"/>
   </g>
   <g id="patch_72">
    <path d="M 181.224 252 
L 187.92 252 
L 187.92 206.817662 
L 181.224 206.817662 
z
" clip-path="url(#pbbb5789e3b)" style="fill: #55a868; fill-opacity: 0.75"/>
   </g>
   <g id="patch_73">
    <path d="M 187.92 252 
L 194.616 252 
L 194.616 187.991688 
L 187.92 187.991688 
z
" clip-path="url(#pbbb5789e3b)" style="fill: #55a868; fill-opacity: 0.75"/>
   </g>
   <g id="patch_74">
    <path d="M 194.616 252 
L 201.312 252 
L 201.312 195.522078 
L 194.616 195.522078 
z
" clip-path="url(#pbbb5789e3b)" style="fill: #55a868; fill-opacity: 0.75"/>
   </g>
   <g id="patch_75">
    <path d="M 201.312 252 
L 208.008 252 
L 208.008 214.348052 
L 201.312 214.348052 
z
" clip-path="url(#pbbb5789e3b)" style="fill: #55a868; fill-opacity: 0.75"/>
   </g>
   <g id="patch_76">
    <path d="M 208.008 252 
L 214.704 252 
L 214.704 214.348052 
L 208.008 214.348052 
z
" clip-path="url(#pbbb5789e3b)" style="fill: #55a868; fill-opacity: 0.75"/>
   </g>
   <g id="patch_77">
    <path d="M 214.704 252 
L 221.4 252 
L 221.4 218.113247 
L 214.704 218.113247 
z
" clip-path="url(#pbbb5789e3b)" style="fill: #55a868; fill-opacity: 0.75"/>
   </g>
   <g id="patch_78">
    <path d="M 221.4 252 
L 228.096 252 
L 228.096 225.643636 
L 221.4 225.643636 
z
" clip-path="url(#pbbb5789e3b)" style="fill: #55a868; fill-opacity: 0.75"/>
   </g>
   <g id="patch_79">
    <path d="M 228.096 252 
L 234.792 252 
L 234.792 221.878442 
L 228.096 221.878442 
z
" clip-path="url(#pbbb5789e3b)" style="fill: #55a868; fill-opacity: 0.75"/>
   </g>
   <g id="patch_80">
    <path d="M 234.792 252 
L 241.488 252 
L 241.488 225.643636 
L 234.792 225.643636 
z
" clip-path="url(#pbbb5789e3b)" style="fill: #55a868; fill-opacity: 0.75"/>
   </g>
   <g id="patch_81">
    <path d="M 241.488 252 
L 248.184 252 
L 248.184 236.939221 
L 241.488 236.939221 
z
" clip-path="url(#pbbb5789e3b)" style="fill: #55a868; fill-opacity: 0.75"/>
   </g>
   <g id="patch_82">
    <path d="M 248.184 252 
L 254.88 252 
L 254.88 225.643636 
L 248.184 225.643636 
z
" clip-path="url(#pbbb5789e3b)" style="fill: #55a868; fill-opacity: 0.75"/>
   </g>
   <g id="patch_83">
    <path d="M 254.88 252 
L 261.576 252 
L 261.576 244.46961 
L 254.88 244.46961 
z
" clip-path="url(#pbbb5789e3b)" style="fill: #55a868; fill-opacity: 0.75"/>
   </g>
   <g id="patch_84">
    <path d="M 261.576 252 
L 268.272 252 
L 268.272 240.704416 
L 261.576 240.704416 
z
" clip-path="url(#pbbb5789e3b)" style="fill: #55a868; fill-opacity: 0.75"/>
   </g>
   <g id="patch_85">
    <path d="M 268.272 252 
L 274.968 252 
L 274.968 240.704416 
L 268.272 240.704416 
z
" clip-path="url(#pbbb5789e3b)" style="fill: #55a868; fill-opacity: 0.75"/>
   </g>
   <g id="patch_86">
    <path d="M 274.968 252 
L 281.664 252 
L 281.664 248.234805 
L 274.968 248.234805 
z
" clip-path="url(#pbbb5789e3b)" style="fill: #55a868; fill-opacity: 0.75"/>
   </g>
   <g id="patch_87">
    <path d="M 281.664 252 
L 288.36 252 
L 288.36 236.939221 
L 281.664 236.939221 
z
" clip-path="url(#pbbb5789e3b)" style="fill: #55a868; fill-opacity: 0.75"/>
   </g>
   <g id="patch_88">
    <path d="M 288.36 252 
L 295.056 252 
L 295.056 244.46961 
L 288.36 244.46961 
z
" clip-path="url(#pbbb5789e3b)" style="fill: #55a868; fill-opacity: 0.75"/>
   </g>
   <g id="patch_89">
    <path d="M 295.056 252 
L 301.752 252 
L 301.752 248.234805 
L 295.056 248.234805 
z
" clip-path="url(#pbbb5789e3b)" style="fill: #55a868; fill-opacity: 0.75"/>
   </g>
   <g id="patch_90">
    <path d="M 301.752 252 
L 308.448 252 
L 308.448 236.939221 
L 301.752 236.939221 
z
" clip-path="url(#pbbb5789e3b)" style="fill: #55a868; fill-opacity: 0.75"/>
   </g>
   <g id="patch_91">
    <path d="M 308.448 252 
L 315.144 252 
L 315.144 236.939221 
L 308.448 236.939221 
z
" clip-path="url(#pbbb5789e3b)" style="fill: #55a868; fill-opacity: 0.75"/>
   </g>
   <g id="patch_92">
    <path d="M 315.144 252 
L 321.84 252 
L 321.84 248.234805 
L 315.144 248.234805 
z
" clip-path="url(#pbbb5789e3b)" style="fill: #55a868; fill-opacity: 0.75"/>
   </g>
   <g id="patch_93">
    <path d="M 321.84 252 
L 328.536 252 
L 328.536 252 
L 321.84 252 
z
" clip-path="url(#pbbb5789e3b)" style="fill: #55a868; fill-opacity: 0.75"/>
   </g>
   <g id="patch_94">
    <path d="M 328.536 252 
L 335.232 252 
L 335.232 248.234805 
L 328.536 248.234805 
z
" clip-path="url(#pbbb5789e3b)" style="fill: #55a868; fill-opacity: 0.75"/>
   </g>
   <g id="patch_95">
    <path d="M 335.232 252 
L 341.928 252 
L 341.928 252 
L 335.232 252 
z
" clip-path="url(#pbbb5789e3b)" style="fill: #55a868; fill-opacity: 0.75"/>
   </g>
   <g id="patch_96">
    <path d="M 341.928 252 
L 348.624 252 
L 348.624 244.46961 
L 341.928 244.46961 
z
" clip-path="url(#pbbb5789e3b)" style="fill: #55a868; fill-opacity: 0.75"/>
   </g>
   <g id="patch_97">
    <path d="M 348.624 252 
L 355.32 252 
L 355.32 252 
L 348.624 252 
z
" clip-path="url(#pbbb5789e3b)" style="fill: #55a868; fill-opacity: 0.75"/>
   </g>
   <g id="patch_98">
    <path d="M 355.32 252 
L 362.016 252 
L 362.016 252 
L 355.32 252 
z
" clip-path="url(#pbbb5789e3b)" style="fill: #55a868; fill-opacity: 0.75"/>
   </g>
   <g id="patch_99">
    <path d="M 362.016 252 
L 368.712 252 
L 368.712 248.234805 
L 362.016 248.234805 
z
" clip-path="url(#pbbb5789e3b)" style="fill: #55a868; fill-opacity: 0.75"/>
   </g>
   <g id="patch_100">
    <path d="M 368.712 252 
L 375.408 252 
L 375.408 252 
L 368.712 252 
z
" clip-path="url(#pbbb5789e3b)" style="fill: #55a868; fill-opacity: 0.75"/>
   </g>
   <g id="patch_101">
    <path d="M 375.408 252 
L 382.104 252 
L 382.104 252 
L 375.408 252 
z
" clip-path="url(#pbbb5789e3b)" style="fill: #55a868; fill-opacity: 0.75"/>
   </g>
   <g id="patch_102">
    <path d="M 382.104 252 
L 388.8 252 
L 388.8 252 
L 382.104 252 
z
" clip-path="url(#pbbb5789e3b)" style="fill: #55a868; fill-opacity: 0.75"/>
   </g>
   <g id="patch_103">
    <path d="M 54 252 
L 54 34.56 
" style="fill: none; stroke: #262626; stroke-width: 0.8; stroke-linejoin: miter; stroke-linecap: square"/>
   </g>
   <g id="patch_104">
    <path d="M 388.8 252 
L 388.8 34.56 
" style="fill: none; stroke: #262626; stroke-width: 0.8; stroke-linejoin: miter; stroke-linecap: square"/>
   </g>
   <g id="patch_105">
    <path d="M 54 252 
L 388.8 252 
" style="fill: none; stroke: #262626; stroke-width: 0.8; stroke-linejoin: miter; stroke-linecap: square"/>
   </g>
   <g id="patch_106">
    <path d="M 54 34.56 
L 388.8 34.56 
" style="fill: none; stroke: #262626; stroke-width: 0.8; stroke-linejoin: miter; stroke-linecap: square"/>
   </g>
   <g id="legend_1">
    <g id="patch_107">
     <path d="M 195.67875 85.366875 
L 379 85.366875 
Q 381.8 85.366875 381.8 82.566875 
L 381.8 44.36 
Q 381.8 41.56 379 41.56 
L 195.67875 41.56 
Q 192.87875 41.56 192.87875 44.36 
L 192.87875 82.566875 
Q 192.87875 85.366875 195.67875 85.366875 
z
" style="fill: #ffffff; opacity: 0.8; stroke: #cccccc; stroke-linejoin: miter"/>
    </g>
    <g id="patch_108">
     <path d="M 198.47875 57.180937 
L 226.47875 57.180937 
L 226.47875 47.380938 
L 198.47875 47.380938 
z
" style="fill: #c44e52; fill-opacity: 0.75"/>
    </g>
    <g id="text_12">
     <!-- Included in Calibration -->
     <g style="fill: #262626" transform="translate(237.67875 57.180937)scale(0.14 -0.14)">
      <defs>
       <path id="ArialMT-49" d="M 597 0 
L 597 4581 
L 1203 4581 
L 1203 0 
L 597 0 
z
" transform="scale(0.015625)"/>
       <path id="ArialMT-63" d="M 2588 1216 
L 3141 1144 
Q 3050 572 2676 248 
Q 2303 -75 1759 -75 
Q 1078 -75 664 370 
Q 250 816 250 1647 
Q 250 2184 428 2587 
Q 606 2991 970 3192 
Q 1334 3394 1763 3394 
Q 2303 3394 2647 3120 
Q 2991 2847 3088 2344 
L 2541 2259 
Q 2463 2594 2264 2762 
Q 2066 2931 1784 2931 
Q 1359 2931 1093 2626 
Q 828 2322 828 1663 
Q 828 994 1084 691 
Q 1341 388 1753 388 
Q 2084 388 2306 591 
Q 2528 794 2588 1216 
z
" transform="scale(0.015625)"/>
       <path id="ArialMT-6c" d="M 409 0 
L 409 4581 
L 972 4581 
L 972 0 
L 409 0 
z
" transform="scale(0.015625)"/>
       <path id="ArialMT-64" d="M 2575 0 
L 2575 419 
Q 2259 -75 1647 -75 
Q 1250 -75 917 144 
Q 584 363 401 755 
Q 219 1147 219 1656 
Q 219 2153 384 2558 
Q 550 2963 881 3178 
Q 1213 3394 1622 3394 
Q 1922 3394 2156 3267 
Q 2391 3141 2538 2938 
L 2538 4581 
L 3097 4581 
L 3097 0 
L 2575 0 
z
M 797 1656 
Q 797 1019 1065 703 
Q 1334 388 1700 388 
Q 2069 388 2326 689 
Q 2584 991 2584 1609 
Q 2584 2291 2321 2609 
Q 2059 2928 1675 2928 
Q 1300 2928 1048 2622 
Q 797 2316 797 1656 
z
" transform="scale(0.015625)"/>
       <path id="ArialMT-43" d="M 3763 1606 
L 4369 1453 
Q 4178 706 3683 314 
Q 3188 -78 2472 -78 
Q 1731 -78 1267 223 
Q 803 525 561 1097 
Q 319 1669 319 2325 
Q 319 3041 592 3573 
Q 866 4106 1370 4382 
Q 1875 4659 2481 4659 
Q 3169 4659 3637 4309 
Q 4106 3959 4291 3325 
L 3694 3184 
Q 3534 3684 3231 3912 
Q 2928 4141 2469 4141 
Q 1941 4141 1586 3887 
Q 1231 3634 1087 3207 
Q 944 2781 944 2328 
Q 944 1744 1114 1308 
Q 1284 872 1643 656 
Q 2003 441 2422 441 
Q 2931 441 3284 734 
Q 3638 1028 3763 1606 
z
" transform="scale(0.015625)"/>
       <path id="ArialMT-62" d="M 941 0 
L 419 0 
L 419 4581 
L 981 4581 
L 981 2947 
Q 1338 3394 1891 3394 
Q 2197 3394 2470 3270 
Q 2744 3147 2920 2923 
Q 3097 2700 3197 2384 
Q 3297 2069 3297 1709 
Q 3297 856 2875 390 
Q 2453 -75 1863 -75 
Q 1275 -75 941 416 
L 941 0 
z
M 934 1684 
Q 934 1088 1097 822 
Q 1363 388 1816 388 
Q 2184 388 2453 708 
Q 2722 1028 2722 1663 
Q 2722 2313 2464 2622 
Q 2206 2931 1841 2931 
Q 1472 2931 1203 2611 
Q 934 2291 934 1684 
z
" transform="scale(0.015625)"/>
      </defs>
      <use xlink:href="#ArialMT-49"/>
      <use xlink:href="#ArialMT-6e" x="27.783203"/>
      <use xlink:href="#ArialMT-63" x="83.398438"/>
      <use xlink:href="#ArialMT-6c" x="133.398438"/>
      <use xlink:href="#ArialMT-75" x="155.615234"/>
      <use xlink:href="#ArialMT-64" x="211.230469"/>
      <use xlink:href="#ArialMT-65" x="266.845703"/>
      <use xlink:href="#ArialMT-64" x="322.460938"/>
      <use xlink:href="#ArialMT-20" x="378.076172"/>
      <use xlink:href="#ArialMT-69" x="405.859375"/>
      <use xlink:href="#ArialMT-6e" x="428.076172"/>
      <use xlink:href="#ArialMT-20" x="483.691406"/>
      <use xlink:href="#ArialMT-43" x="511.474609"/>
      <use xlink:href="#ArialMT-61" x="583.691406"/>
      <use xlink:href="#ArialMT-6c" x="639.306641"/>
      <use xlink:href="#ArialMT-69" x="661.523438"/>
      <use xlink:href="#ArialMT-62" x="683.740234"/>
      <use xlink:href="#ArialMT-72" x="739.355469"/>
      <use xlink:href="#ArialMT-61" x="772.65625"/>
      <use xlink:href="#ArialMT-74" x="828.271484"/>
      <use xlink:href="#ArialMT-69" x="856.054688"/>
      <use xlink:href="#ArialMT-6f" x="878.271484"/>
      <use xlink:href="#ArialMT-6e" x="933.886719"/>
     </g>
    </g>
    <g id="patch_109">
     <path d="M 198.47875 76.984375 
L 226.47875 76.984375 
L 226.47875 67.184375 
L 198.47875 67.184375 
z
" style="fill: #55a868; fill-opacity: 0.75"/>
    </g>
    <g id="text_13">
     <!-- Dropped -->
     <g style="fill: #262626" transform="translate(237.67875 76.984375)scale(0.14 -0.14)">
      <defs>
       <path id="ArialMT-44" d="M 494 0 
L 494 4581 
L 2072 4581 
Q 2606 4581 2888 4516 
Q 3281 4425 3559 4188 
Q 3922 3881 4101 3404 
Q 4281 2928 4281 2316 
Q 4281 1794 4159 1391 
Q 4038 988 3847 723 
Q 3656 459 3429 307 
Q 3203 156 2883 78 
Q 2563 0 2147 0 
L 494 0 
z
M 1100 541 
L 2078 541 
Q 2531 541 2789 625 
Q 3047 709 3200 863 
Q 3416 1078 3536 1442 
Q 3656 1806 3656 2325 
Q 3656 3044 3420 3430 
Q 3184 3816 2847 3947 
Q 2603 4041 2063 4041 
L 1100 4041 
L 1100 541 
z
" transform="scale(0.015625)"/>
      </defs>
      <use xlink:href="#ArialMT-44"/>
      <use xlink:href="#ArialMT-72" x="72.216797"/>
      <use xlink:href="#ArialMT-6f" x="105.517578"/>
      <use xlink:href="#ArialMT-70" x="161.132812"/>
      <use xlink:href="#ArialMT-70" x="216.748047"/>
      <use xlink:href="#ArialMT-65" x="272.363281"/>
      <use xlink:href="#ArialMT-64" x="327.978516"/>
     </g>
    </g>
   </g>
  </g>
 </g>
 <defs>
  <clipPath id="pbbb5789e3b">
   <rect x="54" y="34.56" width="334.8" height="217.44"/>
  </clipPath>
 </defs>
</svg>
